<?xml version="1.0" encoding="utf-8"?>
<!-- Generator: Adobe Illustrator 16.0.0, SVG Export Plug-In . SVG Version: 6.00 Build 0)  -->
<!DOCTYPE svg PUBLIC "-//W3C//DTD SVG 1.1//EN" "http://www.w3.org/Graphics/SVG/1.1/DTD/svg11.dtd">
<svg version="1.1" id="Layer_1" xmlns="http://www.w3.org/2000/svg" xmlns:xlink="http://www.w3.org/1999/xlink" x="0px" y="0px"
	 width="768px" height="768px" viewBox="0 0 768 768" enable-background="new 0 0 768 768" xml:space="preserve">
<g>
	<circle fill="#FFFFFF" cx="401.258" cy="347.506" r="10.723"/>
	<path fill="#FFFFFF" d="M417.218,382.664l-7.952-1.076l-9.256-19.938c-0.858-1.847-2.709-3.027-4.744-3.027h-26.285
		c-1.675,0-3.251,0.803-4.234,2.159l-6.734,9.284c-1.696,2.34-1.177,5.609,1.163,7.306c2.34,1.695,5.612,1.176,7.304-1.164
		l5.169-7.124h9.768l-8.303,15.242c-1.142,2.097-1.369,4.431-0.875,6.587l-4.284,13.609h-16.563c-2.89,0-5.231,2.342-5.231,5.23
		s2.341,5.23,5.231,5.23h20.399c2.285,0,4.304-1.482,4.99-3.66l4.125-13.105c0.019,0,0.034,0.002,0.053,0.004l7.252,12.955
		l-12.361,10.551c-2.197,1.875-2.459,5.178-0.583,7.375c1.033,1.211,2.503,1.834,3.979,1.834c1.203,0,2.41-0.41,3.395-1.252
		l15.626-13.34c1.899-1.619,2.388-4.355,1.169-6.531l-9.512-16.992l7.031-12.903l4.025,8.672c0.752,1.617,2.273,2.742,4.041,2.98
		l10.788,1.461c0.239,0.033,0.477,0.047,0.71,0.047c2.576,0,4.822-1.904,5.178-4.527
		C422.088,385.686,420.08,383.053,417.218,382.664z"/>
</g>
</svg>
