<?xml version="1.0" encoding="UTF-8" standalone="no"?>
<!-- Generator: Adobe Illustrator 16.0.0, SVG Export Plug-In . SVG Version: 6.00 Build 0)  -->

<svg
   xmlns:dc="http://purl.org/dc/elements/1.1/"
   xmlns:cc="http://creativecommons.org/ns#"
   xmlns:rdf="http://www.w3.org/1999/02/22-rdf-syntax-ns#"
   xmlns:svg="http://www.w3.org/2000/svg"
   xmlns="http://www.w3.org/2000/svg"
   xmlns:sodipodi="http://sodipodi.sourceforge.net/DTD/sodipodi-0.dtd"
   xmlns:inkscape="http://www.inkscape.org/namespaces/inkscape"
   version="1.1"
   id="Layer_1"
   x="0px"
   y="0px"
   width="75.584663"
   height="95"
   viewBox="0 0 75.584663 95"
   enable-background="new 0 0 768 768"
   xml:space="preserve"
   inkscape:version="0.91 r13725"
   sodipodi:docname="1.svg"><metadata
     id="metadata13"><rdf:RDF><cc:Work
         rdf:about=""><dc:format>image/svg+xml</dc:format><dc:type
           rdf:resource="http://purl.org/dc/dcmitype/StillImage" /><dc:title></dc:title></cc:Work></rdf:RDF></metadata><defs
     id="defs11" /><sodipodi:namedview
     pagecolor="#ffffff"
     bordercolor="#666666"
     borderopacity="1"
     objecttolerance="10"
     gridtolerance="10"
     guidetolerance="10"
     inkscape:pageopacity="0"
     inkscape:pageshadow="2"
     inkscape:window-width="1343"
     inkscape:window-height="737"
     id="namedview9"
     showgrid="false"
     fit-margin-top="0"
     fit-margin-left="0"
     fit-margin-right="0"
     fit-margin-bottom="0"
     inkscape:zoom="2.465079"
     inkscape:cx="37.839"
     inkscape:cy="46.936"
     inkscape:window-x="0"
     inkscape:window-y="0"
     inkscape:window-maximized="0"
     inkscape:current-layer="Layer_1" /><g
     id="g3"
     style="fill:#000000;fill-opacity:1"
     transform="translate(-346.161,-335.93599)"><circle
       cx="401.258"
       cy="347.50601"
       r="10.723"
       id="circle5"
       style="fill:#000000;fill-opacity:1" /><path
       d="m 417.218,382.664 -7.952,-1.076 -9.256,-19.938 c -0.858,-1.847 -2.709,-3.027 -4.744,-3.027 l -26.285,0 c -1.675,0 -3.251,0.803 -4.234,2.159 l -6.734,9.284 c -1.696,2.34 -1.177,5.609 1.163,7.306 2.34,1.695 5.612,1.176 7.304,-1.164 l 5.169,-7.124 9.768,0 -8.303,15.242 c -1.142,2.097 -1.369,4.431 -0.875,6.587 l -4.284,13.609 -16.563,0 c -2.89,0 -5.231,2.342 -5.231,5.23 0,2.888 2.341,5.23 5.231,5.23 l 20.399,0 c 2.285,0 4.304,-1.482 4.99,-3.66 l 4.125,-13.105 c 0.019,0 0.034,0.002 0.053,0.004 l 7.252,12.955 -12.361,10.551 c -2.197,1.875 -2.459,5.178 -0.583,7.375 1.033,1.211 2.503,1.834 3.979,1.834 1.203,0 2.41,-0.41 3.395,-1.252 l 15.626,-13.34 c 1.899,-1.619 2.388,-4.355 1.169,-6.531 l -9.512,-16.992 7.031,-12.903 4.025,8.672 c 0.752,1.617 2.273,2.742 4.041,2.98 l 10.788,1.461 c 0.239,0.033 0.477,0.047 0.71,0.047 2.576,0 4.822,-1.904 5.178,-4.527 0.391,-2.865 -1.617,-5.498 -4.479,-5.887 z"
       id="path7"
       style="fill:#000000;fill-opacity:1"
       inkscape:connector-curvature="0" /></g></svg>