<?xml version="1.0" encoding="utf-8"?>
<!-- Generator: Adobe Illustrator 16.0.0, SVG Export Plug-In . SVG Version: 6.00 Build 0)  -->
<!DOCTYPE svg PUBLIC "-//W3C//DTD SVG 1.1//EN" "http://www.w3.org/Graphics/SVG/1.1/DTD/svg11.dtd">
<svg version="1.1" id="Layer_1" xmlns="http://www.w3.org/2000/svg" xmlns:xlink="http://www.w3.org/1999/xlink" x="0px" y="0px"
	 width="768px" height="768px" viewBox="0 0 768 768" enable-background="new 0 0 768 768" xml:space="preserve">
<g>
	<circle fill="#FFFFFF" cx="384.893" cy="412.856" r="10.724"/>
	<path fill="#FFFFFF" d="M428.919,427.24h-16.247c2.04-1.512,2.741-4.313,1.518-6.627l-19.88-37.619v-16.038
		c0-0.228-0.052-0.439-0.068-0.662l27.074-20.115c2.319-1.724,2.803-5.001,1.08-7.319c-1.728-2.319-5-2.802-7.318-1.079
		l-26.485,19.679l-39.456-1.874c-2.865-0.129-5.335,2.09-5.472,4.976c-0.136,2.887,2.09,5.337,4.978,5.474l26.837,1.272v15.56
		l-20.216,37.719c-1.24,2.316-0.542,5.137,1.51,6.654h-17.559c-1.158,0-2.093,0.936-2.093,2.092s0.935,2.092,2.093,2.092h89.705
		c1.157,0,2.093-0.936,2.093-2.092S430.076,427.24,428.919,427.24z M364.483,425.525l15.747-29.381
		c1.379,0.791,2.958,1.281,4.662,1.281c1.666,0,3.206-0.469,4.563-1.227l15.485,29.301c0.384,0.725,0.938,1.287,1.56,1.74h-43.514
		C363.587,426.795,364.107,426.227,364.483,425.525z"/>
</g>
</svg>
