<?xml version="1.0" encoding="UTF-8" standalone="no"?>
<!-- Generator: Adobe Illustrator 16.0.0, SVG Export Plug-In . SVG Version: 6.00 Build 0)  -->

<svg
   xmlns:dc="http://purl.org/dc/elements/1.1/"
   xmlns:cc="http://creativecommons.org/ns#"
   xmlns:rdf="http://www.w3.org/1999/02/22-rdf-syntax-ns#"
   xmlns:svg="http://www.w3.org/2000/svg"
   xmlns="http://www.w3.org/2000/svg"
   xmlns:sodipodi="http://sodipodi.sourceforge.net/DTD/sodipodi-0.dtd"
   xmlns:inkscape="http://www.inkscape.org/namespaces/inkscape"
   version="1.1"
   id="Layer_1"
   x="0px"
   y="0px"
   width="107.05646"
   height="95"
   viewBox="0 0 107.05646 95"
   enable-background="new 0 0 768 768"
   xml:space="preserve"
   inkscape:version="0.91 r13725"
   sodipodi:docname="3.svg"><metadata
     id="metadata17"><rdf:RDF><cc:Work
         rdf:about=""><dc:format>image/svg+xml</dc:format><dc:type
           rdf:resource="http://purl.org/dc/dcmitype/StillImage" /><dc:title></dc:title></cc:Work></rdf:RDF></metadata><defs
     id="defs15" /><sodipodi:namedview
     pagecolor="#ffffff"
     bordercolor="#666666"
     borderopacity="1"
     objecttolerance="10"
     gridtolerance="10"
     guidetolerance="10"
     inkscape:pageopacity="0"
     inkscape:pageshadow="2"
     inkscape:window-width="1430"
     inkscape:window-height="839"
     id="namedview13"
     showgrid="false"
     fit-margin-top="0"
     fit-margin-left="0"
     fit-margin-right="0"
     fit-margin-bottom="0"
     inkscape:zoom="2.3150307"
     inkscape:cx="-65.937782"
     inkscape:cy="47.716"
     inkscape:window-x="0"
     inkscape:window-y="0"
     inkscape:window-maximized="0"
     inkscape:current-layer="Layer_1" /><g
     id="g3"
     style="fill:#000000;fill-opacity:1"
     transform="matrix(0.98118332,0,0,0.98118332,-323.93756,-328.59256)"><circle
       cx="341.99399"
       cy="346.19501"
       r="10.723"
       id="circle5"
       style="fill:#000000;fill-opacity:1" /><path
       d="m 424.38,361.886 c 5.923,0 10.723,-4.801 10.723,-10.722 0,-5.923 -4.8,-10.724 -10.723,-10.724 -5.925,0 -10.725,4.801 -10.725,10.724 0,5.921 4.8,10.722 10.725,10.722 z"
       id="path7"
       style="fill:#000000;fill-opacity:1"
       inkscape:connector-curvature="0" /><path
       d="m 391.601,367.989 c 1.857,-2.215 1.562,-5.515 -0.653,-7.367 -2.213,-1.854 -5.514,-1.563 -7.368,0.654 l -13.217,15.791 -6.389,-10.752 12.689,-0.777 c 1.896,-0.116 3.58,-1.251 4.4,-2.966 l 5.753,-12.031 c 1.247,-2.604 0.145,-5.729 -2.459,-6.975 -2.612,-1.247 -5.731,-0.144 -6.977,2.464 l -4.429,9.253 -19.321,1.185 c -0.955,-0.096 -1.919,-0.027 -2.876,0.175 l -0.359,0.023 c -1.492,0.092 -2.851,0.834 -3.771,1.998 -1.214,1.033 -2.094,2.327 -2.646,3.753 l -8.811,12.703 c -1.069,1.544 -1.23,3.541 -0.422,5.233 l 5.493,11.51 c 0.897,1.879 2.771,2.979 4.725,2.979 0.753,0 1.521,-0.167 2.25,-0.514 2.605,-1.245 3.71,-4.367 2.466,-6.975 l -4.186,-8.767 2.082,-3.001 9.951,16.739 c 0.172,0.29 0.367,0.559 0.564,0.822 -0.002,0.027 -0.011,0.056 -0.014,0.085 l -2.508,30.47 c -0.237,2.88 1.903,5.403 4.782,5.641 0.145,0.012 0.29,0.019 0.436,0.019 2.694,0 4.981,-2.068 5.206,-4.801 l 2.311,-28.031 c 0.728,-0.218 1.444,-0.514 2.125,-0.921 2.869,-1.704 4.482,-4.694 4.582,-7.799 l 16.591,-19.82 z"
       id="path9"
       style="fill:#000000;fill-opacity:1"
       inkscape:connector-curvature="0" /><path
       d="m 433.308,405.827 -15.479,-0.624 -2.581,-10.858 9.38,-17.234 c 2.279,-4.183 1.025,-9.301 -2.706,-12.047 -0.58,-0.52 -1.267,-0.911 -2.032,-1.13 -0.86,-0.353 -1.735,-0.608 -2.627,-0.696 l -11.467,-2.954 -5.124,-15.712 c -0.897,-2.746 -3.844,-4.249 -6.597,-3.35 -2.745,0.896 -4.245,3.849 -3.35,6.594 l 6.014,18.439 c 0.556,1.7 1.938,2.995 3.668,3.442 l 5.979,1.543 -2.42,4.441 -13.71,-0.819 c -2.905,-0.194 -5.361,2.026 -5.533,4.911 -0.173,2.881 2.024,5.36 4.907,5.533 l 8.812,0.527 -1.597,2.935 c -1.34,2.459 -1.435,5.238 -0.557,7.678 l -8.915,13.874 c -1.398,2.176 -0.995,5.045 0.947,6.754 l 15.17,13.338 c 0.993,0.874 2.225,1.304 3.451,1.304 1.451,0 2.896,-0.601 3.93,-1.777 1.908,-2.168 1.694,-5.474 -0.475,-7.379 l -11.789,-10.369 6.121,-9.526 c 0.125,0.006 0.251,0.023 0.375,0.023 0.452,0 0.901,-0.039 1.348,-0.104 l 2.114,8.896 c 0.544,2.281 2.535,3.925 4.879,4.017 l 19.442,0.785 c 2.854,0.081 5.32,-2.127 5.437,-5.016 0.118,-2.885 -2.127,-5.321 -5.015,-5.439 z"
       id="path11"
       style="fill:#000000;fill-opacity:1"
       inkscape:connector-curvature="0" /></g></svg>