<?xml version="1.0" encoding="utf-8"?>
<!-- Generator: Adobe Illustrator 16.0.0, SVG Export Plug-In . SVG Version: 6.00 Build 0)  -->
<!DOCTYPE svg PUBLIC "-//W3C//DTD SVG 1.1//EN" "http://www.w3.org/Graphics/SVG/1.1/DTD/svg11.dtd">
<svg version="1.1" id="Layer_1" xmlns="http://www.w3.org/2000/svg" xmlns:xlink="http://www.w3.org/1999/xlink" x="0px" y="0px"
	 width="768px" height="768px" viewBox="0 0 768 768" enable-background="new 0 0 768 768" xml:space="preserve">
<g>
	<circle fill="#FFFFFF" cx="341.994" cy="346.195" r="10.723"/>
	<path fill="#FFFFFF" d="M424.38,361.886c5.923,0,10.723-4.801,10.723-10.722c0-5.923-4.8-10.724-10.723-10.724
		c-5.925,0-10.725,4.801-10.725,10.724C413.655,357.085,418.455,361.886,424.38,361.886z"/>
	<path fill="#FFFFFF" d="M391.601,367.989c1.857-2.215,1.562-5.515-0.653-7.367c-2.213-1.854-5.514-1.563-7.368,0.654
		l-13.217,15.791l-6.389-10.752l12.689-0.777c1.896-0.116,3.58-1.251,4.4-2.966l5.753-12.031c1.247-2.604,0.145-5.729-2.459-6.975
		c-2.612-1.247-5.731-0.144-6.977,2.464l-4.429,9.253l-19.321,1.185c-0.955-0.096-1.919-0.027-2.876,0.175l-0.359,0.023
		c-1.492,0.092-2.851,0.834-3.771,1.998c-1.214,1.033-2.094,2.327-2.646,3.753l-8.811,12.703c-1.069,1.544-1.23,3.541-0.422,5.233
		l5.493,11.51c0.897,1.879,2.771,2.979,4.725,2.979c0.753,0,1.521-0.167,2.25-0.514c2.605-1.245,3.71-4.367,2.466-6.975
		l-4.186-8.767l2.082-3.001l9.951,16.739c0.172,0.29,0.367,0.559,0.564,0.822c-0.002,0.027-0.011,0.056-0.014,0.085l-2.508,30.47
		c-0.237,2.88,1.903,5.403,4.782,5.641c0.145,0.012,0.29,0.019,0.436,0.019c2.694,0,4.981-2.068,5.206-4.801l2.311-28.031
		c0.728-0.218,1.444-0.514,2.125-0.921c2.869-1.704,4.482-4.694,4.582-7.799L391.601,367.989z"/>
	<path fill="#FFFFFF" d="M433.308,405.827l-15.479-0.624l-2.581-10.858l9.38-17.234c2.279-4.183,1.025-9.301-2.706-12.047
		c-0.58-0.52-1.267-0.911-2.032-1.13c-0.86-0.353-1.735-0.608-2.627-0.696l-11.467-2.954l-5.124-15.712
		c-0.897-2.746-3.844-4.249-6.597-3.35c-2.745,0.896-4.245,3.849-3.35,6.594l6.014,18.439c0.556,1.7,1.938,2.995,3.668,3.442
		l5.979,1.543l-2.42,4.441l-13.71-0.819c-2.905-0.194-5.361,2.026-5.533,4.911c-0.173,2.881,2.024,5.36,4.907,5.533l8.812,0.527
		l-1.597,2.935c-1.34,2.459-1.435,5.238-0.557,7.678l-8.915,13.874c-1.398,2.176-0.995,5.045,0.947,6.754l15.17,13.338
		c0.993,0.874,2.225,1.304,3.451,1.304c1.451,0,2.896-0.601,3.93-1.777c1.908-2.168,1.694-5.474-0.475-7.379l-11.789-10.369
		l6.121-9.526c0.125,0.006,0.251,0.023,0.375,0.023c0.452,0,0.901-0.039,1.348-0.104l2.114,8.896
		c0.544,2.281,2.535,3.925,4.879,4.017l19.442,0.785c2.854,0.081,5.32-2.127,5.437-5.016
		C438.441,408.381,436.196,405.945,433.308,405.827z"/>
</g>
</svg>
