<?xml version="1.0" encoding="utf-8"?>
<!-- Generator: Adobe Illustrator 16.0.0, SVG Export Plug-In . SVG Version: 6.00 Build 0)  -->
<!DOCTYPE svg PUBLIC "-//W3C//DTD SVG 1.1//EN" "http://www.w3.org/Graphics/SVG/1.1/DTD/svg11.dtd">
<svg version="1.1" id="Layer_1" xmlns="http://www.w3.org/2000/svg" xmlns:xlink="http://www.w3.org/1999/xlink" x="0px" y="0px"
	 width="768px" height="768px" viewBox="0 0 768 768" enable-background="new 0 0 768 768" xml:space="preserve">
<g>
	<path fill="#FFFFFF" d="M412.848,385.626c5.923,0,10.723-4.803,10.723-10.724s-4.8-10.722-10.723-10.722
		c-5.925,0-10.724,4.801-10.724,10.722S406.923,385.626,412.848,385.626z"/>
	<path fill="#FFFFFF" d="M365.398,383.151l7.942-5.396l4.79,1.832l-14.998,8.933c-1.814,1.081-3.102,2.688-3.851,4.499
		c6.257-0.021,14.746,0.612,22.924,1.226l0.8,0.063c5.378,0.403,10.529,0.789,14.902,0.983l3.666-5.141
		c1.139-1.597,1.288-3.698,0.385-5.441l-1.984-3.831c-0.214-0.934-0.528-1.854-1.046-2.724c-1.561-2.614-4.197-4.167-7.006-4.495
		l-17.396-6.65c-1.595-0.611-3.392-0.402-4.808,0.559l-10.2,6.929c-2.389,1.625-3.011,4.88-1.388,7.269
		C359.758,384.154,363.006,384.779,365.398,383.151z"/>
	<path fill="#FFFFFF" d="M428.945,397.668c-0.186,0.017-18.795,1.852-24.929,1.935c-5.458,0.084-13.453-0.531-21.902-1.166
		c-9.19-0.692-18.683-1.413-24.961-1.196c-4.645,0.153-17.774,2.443-18.331,2.54c-1.14,0.2-1.9,1.282-1.7,2.421
		c0.175,1.018,1.058,1.731,2.058,1.731c0.121,0,0.241-0.01,0.362-0.03c0.134-0.023,13.396-2.338,17.749-2.482
		c6.046-0.188,15.43,0.51,24.51,1.191c8.543,0.643,16.604,1.234,22.271,1.175c6.314-0.084,24.513-1.88,25.286-1.956
		c1.149-0.113,1.988-1.138,1.876-2.288C431.117,398.395,430.106,397.566,428.945,397.668z"/>
</g>
</svg>
