<?xml version="1.0" encoding="UTF-8" standalone="no"?>
<!-- Generator: Adobe Illustrator 16.0.0, SVG Export Plug-In . SVG Version: 6.00 Build 0)  -->

<svg
   xmlns:dc="http://purl.org/dc/elements/1.1/"
   xmlns:cc="http://creativecommons.org/ns#"
   xmlns:rdf="http://www.w3.org/1999/02/22-rdf-syntax-ns#"
   xmlns:svg="http://www.w3.org/2000/svg"
   xmlns="http://www.w3.org/2000/svg"
   xmlns:sodipodi="http://sodipodi.sourceforge.net/DTD/sodipodi-0.dtd"
   xmlns:inkscape="http://www.inkscape.org/namespaces/inkscape"
   version="1.1"
   id="Layer_1"
   x="0px"
   y="0px"
   width="77.589996"
   height="95"
   viewBox="0 0 77.589996 95"
   enable-background="new 0 0 768 768"
   xml:space="preserve"
   inkscape:version="0.91 r13725"
   sodipodi:docname="5.svg"><metadata
     id="metadata15"><rdf:RDF><cc:Work
         rdf:about=""><dc:format>image/svg+xml</dc:format><dc:type
           rdf:resource="http://purl.org/dc/dcmitype/StillImage" /><dc:title></dc:title></cc:Work></rdf:RDF></metadata><defs
     id="defs13" /><sodipodi:namedview
     pagecolor="#ffffff"
     bordercolor="#666666"
     borderopacity="1"
     objecttolerance="10"
     gridtolerance="10"
     guidetolerance="10"
     inkscape:pageopacity="0"
     inkscape:pageshadow="2"
     inkscape:window-width="1453"
     inkscape:window-height="728"
     id="namedview11"
     showgrid="false"
     fit-margin-top="0"
     fit-margin-left="0"
     fit-margin-right="0"
     fit-margin-bottom="0"
     inkscape:zoom="2"
     inkscape:cx="-124.35668"
     inkscape:cy="49.717"
     inkscape:window-x="0"
     inkscape:window-y="0"
     inkscape:window-maximized="0"
     inkscape:current-layer="Layer_1" /><g
     id="g3"
     style="fill:#000000;fill-opacity:1"
     transform="matrix(0.94581671,0,0,0.94581671,-324.78517,-315.21681)"><circle
       cx="400.92001"
       cy="345.05499"
       r="10.723"
       id="circle5"
       style="fill:#000000;fill-opacity:1" /><path
       d="m 389.588,390.372 7.031,-12.904 4.025,8.672 c 0.751,1.618 2.275,2.741 4.041,2.98 l 10.789,1.461 c 0.238,0.032 0.475,0.047 0.709,0.047 2.576,0 4.822,-1.904 5.178,-4.529 0.386,-2.863 -1.621,-5.498 -4.481,-5.886 l -7.952,-1.076 -9.256,-19.938 c -0.857,-1.847 -2.709,-3.028 -4.745,-3.028 l -26.284,0 c -1.676,0 -3.249,0.804 -4.233,2.159 l -6.734,9.285 c -1.696,2.34 -1.178,5.609 1.162,7.306 2.338,1.692 5.609,1.176 7.305,-1.162 l 5.169,-7.126 9.767,0 -8.304,15.243 c -1.141,2.097 -1.367,4.43 -0.875,6.589 l -4.283,13.604 -16.562,0 c -2.89,0 -5.232,2.344 -5.232,5.232 0,2.888 2.342,5.23 5.232,5.23 l 20.399,0 c 2.285,0 4.303,-1.481 4.99,-3.659 l 4.125,-13.105 c 0.019,0 0.035,10e-4 0.051,0.004 l 7.254,12.953 -12.362,10.551 c -2.199,1.877 -2.458,5.18 -0.582,7.376 1.036,1.212 2.503,1.834 3.98,1.834 1.201,0 2.409,-0.409 3.394,-1.252 l 15.627,-13.338 c 1.896,-1.621 2.385,-4.356 1.168,-6.532 l -9.511,-16.991 z"
       id="path7"
       style="fill:#000000;fill-opacity:1"
       inkscape:connector-curvature="0" /><path
       d="m 411.643,410.177 c -6.489,0 -11.769,5.281 -11.769,11.77 0,6.49 5.279,11.77 11.769,11.77 6.49,0 11.77,-5.279 11.77,-11.77 -0.001,-6.489 -5.28,-11.77 -11.77,-11.77 z m 0,19.354 c -4.183,0 -7.584,-3.402 -7.584,-7.585 0,-4.183 3.401,-7.585 7.584,-7.585 4.182,0 7.586,3.402 7.586,7.585 0,4.183 -3.405,7.585 -7.586,7.585 z"
       id="path9"
       style="fill:#000000;fill-opacity:1"
       inkscape:connector-curvature="0" /></g></svg>