<?xml version="1.0" encoding="utf-8"?>
<!-- Generator: Adobe Illustrator 16.0.0, SVG Export Plug-In . SVG Version: 6.00 Build 0)  -->
<!DOCTYPE svg PUBLIC "-//W3C//DTD SVG 1.1//EN" "http://www.w3.org/Graphics/SVG/1.1/DTD/svg11.dtd">
<svg version="1.1" id="Layer_1" xmlns="http://www.w3.org/2000/svg" xmlns:xlink="http://www.w3.org/1999/xlink" x="0px" y="0px"
	 width="768px" height="768px" viewBox="0 0 768 768" enable-background="new 0 0 768 768" xml:space="preserve">
<g>
	<circle fill="#FFFFFF" cx="400.92" cy="345.055" r="10.723"/>
	<path fill="#FFFFFF" d="M389.588,390.372l7.031-12.904l4.025,8.672c0.751,1.618,2.275,2.741,4.041,2.98l10.789,1.461
		c0.238,0.032,0.475,0.047,0.709,0.047c2.576,0,4.822-1.904,5.178-4.529c0.386-2.863-1.621-5.498-4.481-5.886l-7.952-1.076
		l-9.256-19.938c-0.857-1.847-2.709-3.028-4.745-3.028h-26.284c-1.676,0-3.249,0.804-4.233,2.159l-6.734,9.285
		c-1.696,2.34-1.178,5.609,1.162,7.306c2.338,1.692,5.609,1.176,7.305-1.162l5.169-7.126h9.767l-8.304,15.243
		c-1.141,2.097-1.367,4.43-0.875,6.589l-4.283,13.604h-16.562c-2.89,0-5.232,2.344-5.232,5.232s2.342,5.23,5.232,5.23h20.399
		c2.285,0,4.303-1.481,4.99-3.659l4.125-13.105c0.019,0,0.035,0.001,0.051,0.004l7.254,12.953l-12.362,10.551
		c-2.199,1.877-2.458,5.18-0.582,7.376c1.036,1.212,2.503,1.834,3.98,1.834c1.201,0,2.409-0.409,3.394-1.252l15.627-13.338
		c1.896-1.621,2.385-4.356,1.168-6.532L389.588,390.372z"/>
	<path fill="#FFFFFF" d="M411.643,410.177c-6.489,0-11.769,5.281-11.769,11.77c0,6.49,5.279,11.77,11.769,11.77
		c6.49,0,11.77-5.279,11.77-11.77C423.412,415.458,418.133,410.177,411.643,410.177z M411.643,429.531
		c-4.183,0-7.584-3.402-7.584-7.585s3.401-7.585,7.584-7.585c4.182,0,7.586,3.402,7.586,7.585S415.824,429.531,411.643,429.531z"/>
</g>
</svg>
