<?xml version="1.0" encoding="utf-8"?>
<!-- Generator: Adobe Illustrator 16.0.0, SVG Export Plug-In . SVG Version: 6.00 Build 0)  -->
<!DOCTYPE svg PUBLIC "-//W3C//DTD SVG 1.1//EN" "http://www.w3.org/Graphics/SVG/1.1/DTD/svg11.dtd">
<svg version="1.1" xmlns="http://www.w3.org/2000/svg" xmlns:xlink="http://www.w3.org/1999/xlink" x="0px" y="0px" width="768px"
	 height="1024px" viewBox="0 0 768 1024" enable-background="new 0 0 768 1024" xml:space="preserve">
<g id="Layer_4">
	<path fill="#A9D657" d="M148.686,436.14C140.788,460.336,136.5,486.166,136.5,513c0,81.721,39.614,154.179,100.677,199.25
		l148.305-200.014L148.686,436.14z"/>
	<path fill="#5EB4D7" d="M385.482,512.236L237.177,712.25C278.253,742.569,329.03,760.5,384,760.5
		c54.232,0,104.378-17.455,145.157-47.036L385.482,512.236z"/>
	<path fill="#F79C31" d="M384.376,265.505c-0.126,0-0.25-0.005-0.376-0.005c-109.856,0-202.978,71.581-235.314,170.64
		l236.796,76.096L384.376,265.505z"/>
	<path fill="#855297" d="M619.556,436.884l-234.073,75.352l143.675,201.228C591.164,668.488,631.5,595.459,631.5,513
		C631.5,486.441,627.301,460.866,619.556,436.884z"/>
	<path fill="#E31E25" d="M471.68,484.668l147.876-47.784c-32.074-99.331-125.211-171.215-235.179-171.379l1.106,246.731
		L471.68,484.668z"/>
</g>
<g id="Layer_7">
	<path opacity="0.1" d="M384.376,265.505l1.106,246.731l144.618-199.01C489.25,283.296,438.884,265.586,384.376,265.505z"/>
	<path opacity="0.1" d="M148.657,589.821c16.153,49.507,47.496,92.148,88.521,122.429l43.334-58.443l104.681-141.323
		L148.657,589.821z"/>
	<path opacity="0.1" d="M384,760.5c54.232,0,104.378-17.455,145.157-47.036L385.482,512.236l-3.225,248.246
		C382.839,760.486,383.418,760.5,384,760.5z"/>
	<path opacity="0.1" d="M630.678,512.236c0-26.216-4.136-51.463-11.756-75.147l-233.439,75.147l233.24,75.788
		C626.473,564.155,630.678,538.688,630.678,512.236z"/>
	<path opacity="0.1" d="M148.686,436.14l236.796,76.096l-145.806-200.3C197.446,342.309,165.167,385.651,148.686,436.14z"/>
</g>
</svg>
