<?xml version="1.0" encoding="UTF-8" standalone="no"?>
<!-- Generator: Adobe Illustrator 16.0.0, SVG Export Plug-In . SVG Version: 6.00 Build 0)  -->

<svg
   xmlns:dc="http://purl.org/dc/elements/1.1/"
   xmlns:cc="http://creativecommons.org/ns#"
   xmlns:rdf="http://www.w3.org/1999/02/22-rdf-syntax-ns#"
   xmlns:svg="http://www.w3.org/2000/svg"
   xmlns="http://www.w3.org/2000/svg"
   xmlns:sodipodi="http://sodipodi.sourceforge.net/DTD/sodipodi-0.dtd"
   xmlns:inkscape="http://www.inkscape.org/namespaces/inkscape"
   version="1.1"
   id="Layer_6"
   x="0px"
   y="0px"
   width="506.00699"
   height="506.00299"
   viewBox="0 0 506.00699 506.00299"
   enable-background="new 0 0 768 1024"
   xml:space="preserve"
   inkscape:version="0.91 r13725"
   sodipodi:docname="logo_jun_1.svg"><metadata
     id="metadata113"><rdf:RDF><cc:Work
         rdf:about=""><dc:format>image/svg+xml</dc:format><dc:type
           rdf:resource="http://purl.org/dc/dcmitype/StillImage" /><dc:title></dc:title></cc:Work></rdf:RDF></metadata><defs
     id="defs111" /><sodipodi:namedview
     pagecolor="#ffffff"
     bordercolor="#666666"
     borderopacity="1"
     objecttolerance="10"
     gridtolerance="10"
     guidetolerance="10"
     inkscape:pageopacity="0"
     inkscape:pageshadow="2"
     inkscape:window-width="759"
     inkscape:window-height="480"
     id="namedview109"
     showgrid="false"
     fit-margin-top="0"
     fit-margin-left="0"
     fit-margin-right="0"
     fit-margin-bottom="0"
     inkscape:zoom="0.23046875"
     inkscape:cx="253.007"
     inkscape:cy="254"
     inkscape:window-x="0"
     inkscape:window-y="0"
     inkscape:window-maximized="0"
     inkscape:current-layer="Layer_6" /><g
     id="g3"
     transform="translate(-130.993,-259.997)"><path
       d="m 626.418,440.447 0.062,-0.02 -1.689,-5.233 c -0.009,-0.026 -0.018,-0.051 -0.025,-0.077 l -1.666,-5.158 -0.06,0.019 C 606.316,381.747 575.374,340.208 534.048,309.588 491.83,278.307 441,261.245 389,260.072 l 0,0.928 -4.704,0 -0.296,-0.502 c -0.185,0 -0.812,-0.245 -0.996,-0.245 l -5.004,-0.256 0,0.052 c -53,1.033 -102.119,17.992 -144.434,49.198 -41.326,30.478 -71.712,71.875 -88.563,119.977 l 0.05,-0.02 -1.651,5.229 -1.679,5.228 0.076,0.02 c -7.174,23.718 -10.806,48.354 -10.806,73.319 0,40.849 9.442,79.841 28.056,115.892 16.92,32.771 41.24,61.865 70.508,84.473 l -0.046,0.064 4.4,3.246 4.452,3.286 0.038,-0.051 C 281.162,750.08 331.38,766 384,766 c 51.867,0 101.496,-15.51 143.895,-44.903 l 0.036,0.051 4.456,-3.231 4.448,-3.227 -0.047,-0.065 c 29.728,-22.575 54.447,-51.779 71.67,-84.792 C 627.13,594.039 637,553.64 637,513 c 0,-24.693 -3.562,-49.072 -10.582,-72.553 z M 389.868,271.074 c 101.109,2.406 189.51,66.822 222.705,162.286 l -101.938,32.94 -37.943,12.261 -83.044,-61.926 0.22,-145.561 z m -11,-0.018 -0.222,145.5 -85.475,60.99 -22.309,-7.287 -115.184,-37.622 C 189.16,337.359 277.741,273.188 378.868,271.056 Z M 236.03,704.487 C 177.049,658.813 142,587.65 142,513 c 0,-23.802 3.452,-47.291 10.267,-69.904 l 112.973,36.899 24.494,8 31.99,98.934 -85.694,117.558 z M 384,755 c -50.275,0 -98.254,-15.186 -139.122,-43.978 l 85.744,-117.626 104.604,-0.275 86.218,119.068 C 480.936,740.215 433.534,755 384,755 Z m 146.347,-49.271 -26.418,-36.484 -59.802,-82.587 31.91,-97.617 139.916,-45.211 C 622.622,466.215 626,489.457 626,513 c 0,75.45 -35.656,147.08 -95.653,192.729 z"
       id="path5"
       inkscape:connector-curvature="0"
       style="fill:#ffffff" /><g
       id="g7"><path
         stroke-miterlimit="22.926"
         d="m 375.663,540.454 c 1.75,1.94 1.625,4.912 -0.277,6.634 -1.911,1.717 -4.875,1.524 -6.627,-0.41 -1.752,-1.948 -1.628,-4.919 0.281,-6.637 1.907,-1.719 4.874,-1.534 6.623,0.413 z"
         id="path9"
         inkscape:connector-curvature="0"
         style="clip-rule:evenodd;fill:#e41f27;fill-rule:evenodd;stroke:#e41f27;stroke-width:0.161;stroke-miterlimit:22.9260006" /><path
         d="m 369.246,531.747 c 1,-0.27 2.23,-0.673 2.23,-1.212 0,-0.27 -0.344,-0.494 -0.658,-0.494 -0.373,0 -1.145,0.337 -1.487,0.561 l 0,-4.531 c 0,-1.525 0.057,-4.084 -3.747,-4.084 -2.604,0 -6.635,1.235 -6.635,2.063 0,0.718 0.945,0.36 1.428,0.158 1.832,-0.785 3.433,-1.054 4.405,-1.054 2.087,0 2.547,0.92 2.547,2.041 l 0,1.997 c -4.52,-0.854 -9.555,1.368 -9.555,4.172 0,1.863 2.602,2.289 3.891,2.289 2.002,0 3.805,-0.563 5.492,-1.436 -0.489,0.718 -0.517,1.979 0.714,1.979 1.487,0 1.374,-0.945 1.374,-1.776 l 0,-0.673 10e-4,0 z m -2.062,-0.518 c -1.685,0.764 -4.032,1.213 -5.262,1.213 -1.601,0 -2.028,-1.01 -2.028,-1.549 0,-1.321 2.43,-2.691 4.547,-2.691 2.975,0 2.743,1.637 2.743,2.333 l 0,0.694 z"
         id="path11"
         inkscape:connector-curvature="0"
         style="clip-rule:evenodd;fill:#f18d23;fill-rule:evenodd" /><path
         stroke-miterlimit="22.926"
         d="m 369.246,531.747 c 1,-0.27 2.23,-0.673 2.23,-1.212 0,-0.27 -0.344,-0.494 -0.658,-0.494 -0.373,0 -1.145,0.337 -1.487,0.561 l 0,-4.531 c 0,-1.525 0.057,-4.084 -3.747,-4.084 -2.604,0 -6.635,1.235 -6.635,2.063 0,0.718 0.945,0.36 1.428,0.158 1.832,-0.785 3.433,-1.054 4.405,-1.054 2.087,0 2.547,0.92 2.547,2.041 l 0,1.997 c -4.52,-0.854 -9.555,1.368 -9.555,4.172 0,1.863 2.602,2.289 3.891,2.289 2.002,0 3.805,-0.563 5.492,-1.436 -0.489,0.718 -0.517,1.979 0.714,1.979 1.487,0 1.374,-0.945 1.374,-1.776 l 0,-0.673 10e-4,0 z m -2.062,-0.518 c -1.685,0.764 -4.032,1.213 -5.262,1.213 -1.601,0 -2.028,-1.01 -2.028,-1.549 0,-1.321 2.43,-2.691 4.547,-2.691 2.975,0 2.743,1.637 2.743,2.333 l 0,0.694 z"
         id="path13"
         inkscape:connector-curvature="0"
         style="clip-rule:evenodd;fill:none;fill-rule:evenodd;stroke:#f18d23;stroke-width:0.161;stroke-miterlimit:22.9260006" /><path
         d="m 403.902,521.172 c 0.093,-0.021 0.123,-0.185 0.123,-0.254 0,-0.093 -0.03,-0.207 -0.123,-0.207 -0.766,0 -6.667,0.899 -9.982,1.961 l -1.444,0.463 c -1.271,0.414 -1.861,1.876 -0.305,1.293 l 1.134,-0.393 0.156,3.185 c 0.151,3.485 -0.523,7.712 1.475,7.712 0.95,0 0.89,-1.158 0.89,-3.28 0,-1.708 -0.153,-4.153 -0.738,-8.033 2.457,-0.809 5.437,-1.661 7.831,-2.215 l 0.983,-0.232 z"
         id="path15"
         inkscape:connector-curvature="0"
         style="clip-rule:evenodd;fill:#f18d23;fill-rule:evenodd" /><path
         stroke-miterlimit="22.926"
         d="m 403.902,521.172 c 0.093,-0.021 0.123,-0.185 0.123,-0.254 0,-0.093 -0.03,-0.207 -0.123,-0.207 -0.766,0 -6.667,0.899 -9.982,1.961 l -1.444,0.463 c -1.271,0.414 -1.861,1.876 -0.305,1.293 l 1.134,-0.393 0.156,3.185 c 0.151,3.485 -0.523,7.712 1.475,7.712 0.95,0 0.89,-1.158 0.89,-3.28 0,-1.708 -0.153,-4.153 -0.738,-8.033 2.457,-0.809 5.437,-1.661 7.831,-2.215 l 0.983,-0.232 z"
         id="path17"
         inkscape:connector-curvature="0"
         style="clip-rule:evenodd;fill:none;fill-rule:evenodd;stroke:#f18d23;stroke-width:0.161;stroke-miterlimit:22.9260006" /><path
         stroke-miterlimit="22.926"
         d="m 375.667,540.395 c -1.753,-1.939 -4.717,-2.124 -6.624,-0.411 -1.907,1.714 -2.036,4.687 -0.285,6.633 0.952,-3.313 3.383,-5.791 6.909,-6.222 z"
         id="path19"
         inkscape:connector-curvature="0"
         style="clip-rule:evenodd;fill:#f18d23;fill-rule:evenodd;stroke:#f18d23;stroke-width:0.161;stroke-miterlimit:22.9260006" /><radialGradient
         id="SVGID_1_"
         cx="376.16309"
         cy="553.47662"
         r="52.375198"
         gradientTransform="matrix(0.3749,0,0,0.3749,239.1626,330.7769)"
         gradientUnits="userSpaceOnUse"><stop
           offset="0"
           style="stop-color:#FFEC00"
           id="stop22" /><stop
           offset="1"
           style="stop-color:#F6A300"
           id="stop24" /></radialGradient><path
         d="m 371.109,521.7 c -0.948,1.733 1.189,6.268 2.924,8.828 l 0,0 c 4.916,7.247 9.521,4.313 12.121,1.38 l 0,0 c 1.193,-1.351 1.965,-2.697 2.148,-3.059 l 0,0 c -0.704,4.02 -2.172,8.564 -4.124,12.366 l 0,0 c -2.292,4.464 -5.22,7.98 -7.849,9.571 l 0,0 c -2.818,1.707 -5.734,1.523 -6.163,1.652 l 0,0 c -1.106,0.326 0.882,2.819 3.521,2.356 l 0,-10e-4 c 8.379,-1.467 16.346,-17.256 16.734,-30.838 l 0,0 c 0.032,-2.665 -1.056,-0.93 -3.259,3.207 l 0,0 c -4.307,7.87 -10.147,8.523 -14.71,-3.103 l 0,0 c -0.226,-0.576 -0.803,-2.484 -1.192,-2.484 l 0,0 c -0.054,0.002 -0.105,0.04 -0.151,0.125 l 0,0 z"
         id="path26"
         inkscape:connector-curvature="0"
         style="clip-rule:evenodd;fill:url(#SVGID_1_);fill-rule:evenodd" /><path
         stroke-miterlimit="22.926"
         d="m 390.423,523.957 c 0.033,-2.665 -1.056,-0.93 -3.259,3.207 -4.308,7.87 -10.146,8.523 -14.71,-3.104 -0.257,-0.656 -0.972,-3.046 -1.345,-2.361 -0.948,1.734 1.189,6.269 2.925,8.829 7.823,11.534 14.862,-2.723 14.274,-1.72 -0.701,4.028 -2.17,8.591 -4.13,12.407 -2.292,4.462 -5.22,7.981 -7.849,9.571 -2.818,1.708 -5.734,1.525 -6.164,1.653 -1.104,0.325 0.883,2.817 3.522,2.355 8.38,-1.464 16.347,-17.255 16.736,-30.837 z"
         id="path28"
         inkscape:connector-curvature="0"
         style="clip-rule:evenodd;fill:#ee7c00;fill-rule:evenodd;stroke:#f18d23;stroke-width:0.1613;stroke-miterlimit:22.9260006" /><radialGradient
         id="SVGID_2_"
         cx="293.375"
         cy="527.59857"
         r="25.0935"
         gradientTransform="matrix(0.3749,0,0,0.3749,239.1626,330.7769)"
         gradientUnits="userSpaceOnUse"><stop
           offset="0"
           style="stop-color:#FFEC00"
           id="stop31" /><stop
           offset="1"
           style="stop-color:#F6A300"
           id="stop33" /></radialGradient><path
         d="m 343.545,524.373 -0.487,1.464 c -0.489,1.441 -0.777,3.312 -1.265,6.624 l 0,0 -0.115,0.788 c -0.143,0.922 0.401,1.013 0.689,1.013 l 0,0 c 0.489,0 1.208,-0.202 1.236,-0.72 l 0,0 0.027,-0.856 c 0.085,-2.637 -0.027,-4.46 1.207,-6.917 l 0,0 c 0.4,1.307 1.32,3.988 1.868,5.272 l 0,0 0.43,1.014 c 0.402,0.969 0.573,1.082 1.004,1.082 l 0,0 c 0.861,0 0.718,-0.383 4.279,-7.568 l 0,0 c 0.374,0.967 0.948,2.701 1.091,3.534 l 0,0 0.634,3.358 c 0.227,1.284 1.061,1.373 1.407,1.373 l 0,0 c 1.522,0 0.804,-2.073 0.543,-2.95 l 0,0 -0.429,-1.51 c -0.345,-1.191 -0.431,-1.284 -0.892,-2.839 l 0,0 c -0.255,-0.967 -0.43,-1.667 -0.66,-2.275 l 0,0 -0.287,-0.769 c -0.116,-0.289 -0.344,-0.426 -0.746,-0.426 l 0,0 c -0.775,0 -0.748,0.474 -1.177,1.352 l 0,0 -0.575,1.195 c -0.202,0.426 -0.574,1.216 -2.414,5.337 l 0,0 c -1.979,-3.896 -1.979,-5.518 -2.325,-6.418 l 0,0 -0.345,-0.924 c -0.259,-0.722 -0.546,-0.63 -0.804,-0.63 l 0,0 c -0.192,0 -0.374,-0.021 -0.546,-0.021 l 0,0 c -0.496,0 -0.922,0.163 -1.348,1.417 l 0,0 z"
         id="path35"
         inkscape:connector-curvature="0"
         style="clip-rule:evenodd;fill:url(#SVGID_2_);fill-rule:evenodd" /><path
         stroke-miterlimit="22.926"
         d="m 354.143,532.461 c 0.229,1.284 1.062,1.373 1.406,1.373 1.523,0 0.806,-2.072 0.546,-2.95 l -0.431,-1.51 c -0.344,-1.192 -0.43,-1.284 -0.89,-2.839 -0.256,-0.967 -0.431,-1.667 -0.661,-2.275 l -0.286,-0.767 c -0.117,-0.291 -0.346,-0.428 -0.746,-0.428 -0.776,0 -0.749,0.474 -1.18,1.353 l -0.574,1.194 c -0.201,0.427 -0.573,1.216 -2.413,5.337 -1.979,-3.896 -1.979,-5.518 -2.325,-6.419 l -0.345,-0.923 c -0.259,-0.722 -0.544,-0.63 -0.804,-0.63 -0.747,0 -1.321,-0.293 -1.895,1.396 l -0.489,1.464 c -0.488,1.442 -0.775,3.312 -1.264,6.624 l -0.115,0.788 c -0.143,0.922 0.402,1.013 0.689,1.013 0.489,0 1.208,-0.202 1.235,-0.72 l 0.03,-0.855 c 0.085,-2.637 -0.03,-4.461 1.206,-6.918 0.401,1.307 1.321,3.988 1.868,5.272 l 0.43,1.013 c 0.401,0.97 0.573,1.081 1.005,1.081 0.86,0 0.718,-0.381 4.278,-7.566 0.374,0.966 0.947,2.701 1.09,3.535 l 0.635,3.357 z"
         id="path37"
         inkscape:connector-curvature="0"
         style="clip-rule:evenodd;fill:#ee7c00;fill-rule:evenodd;stroke:#f18d23;stroke-width:0.161;stroke-miterlimit:22.9260006" /><radialGradient
         id="SVGID_3_"
         cx="478.46481"
         cy="526.85449"
         r="21.9256"
         gradientTransform="matrix(0.3749,0,0,0.3749,239.1626,330.7769)"
         gradientUnits="userSpaceOnUse"><stop
           offset="0"
           style="stop-color:#FFEC00"
           id="stop40" /><stop
           offset="1"
           style="stop-color:#F6A300"
           id="stop42" /></radialGradient><path
         d="m 414.13,522.419 -0.04,0 c -0.324,0 -1.281,0.043 -1.25,2.032 l 0,0 0.028,2.952 c 0.034,3.648 0.612,6.279 3.687,6.279 l 0,0 c 1.871,0 3.806,-1.359 4.791,-2.769 l 0,0 c 0.033,1.936 0.828,3.257 1.658,3.257 1.997,0 1.106,-2.035 0.954,-2.497 l 0,0 -0.37,-1.154 c -0.584,-1.776 -0.556,-3.691 -0.556,-4.36 l 0,0 0,-1.987 c 0,-0.925 -0.12,-1.593 -1.01,-1.593 l 0,0 c -1.201,0 -1.201,1.062 -1.166,2.009 l 0,0 0.06,1.917 c 0.062,1.754 0.275,5.562 -2.92,5.562 l 0,0 c -2.886,0 -2.764,-2.77 -2.764,-4.039 l 0,0 0,-3.207 c 0,-2.358 -0.226,-2.401 -1.013,-2.401 l 0,0 c -0.03,-10e-4 -0.059,-10e-4 -0.089,-10e-4 l 0,0 z"
         id="path44"
         inkscape:connector-curvature="0"
         style="clip-rule:evenodd;fill:url(#SVGID_3_);fill-rule:evenodd" /><path
         stroke-miterlimit="22.926"
         d="m 423.588,530.521 c -0.584,-1.777 -0.554,-3.692 -0.554,-4.361 l 0,-1.987 c 0,-0.922 -0.122,-1.593 -1.013,-1.593 -1.197,0 -1.197,1.062 -1.167,2.009 l 0.06,1.917 c 0.063,1.754 0.276,5.562 -2.918,5.562 -2.886,0 -2.764,-2.77 -2.764,-4.039 l 0,-3.207 c 0,-2.448 -0.244,-2.4 -1.103,-2.4 -0.277,0 -1.321,-0.048 -1.29,2.03 l 0.028,2.954 c 0.034,3.647 0.613,6.278 3.687,6.278 1.871,0 3.808,-1.36 4.789,-2.769 0.035,1.938 0.83,3.257 1.66,3.257 1.997,0 1.106,-2.035 0.954,-2.497 l -0.369,-1.154 z"
         id="path46"
         inkscape:connector-curvature="0"
         style="clip-rule:evenodd;fill:#ee7c00;fill-rule:evenodd;stroke:#f18d23;stroke-width:0.161;stroke-miterlimit:22.9260006" /><radialGradient
         id="SVGID_4_"
         cx="444.05569"
         cy="525.67969"
         r="21.567101"
         gradientTransform="matrix(0.3749,0,0,0.3749,239.1626,330.7769)"
         gradientUnits="userSpaceOnUse"><stop
           offset="0"
           style="stop-color:#FFEC00"
           id="stop49" /><stop
           offset="1"
           style="stop-color:#F6A300"
           id="stop51" /></radialGradient><path
         d="m 400.707,533.936 0.022,0 c 0.474,-0.01 0.625,-0.394 0.714,-0.622 l 0,0 0.955,-2.632 c 0.766,-2.101 1.688,-4.106 2.886,-6.139 l 0,0 c 1.288,2.7 2.178,4.452 3.224,7.041 l 0,0 0.586,1.453 c 0.152,0.345 0.184,0.694 0.828,0.694 l 0,0 c 0.521,0 1.046,-0.304 1.046,-0.903 l 0,0 c 0,-1.592 -2.122,-5.309 -3.506,-8.887 l 0,0 -0.369,-0.944 c -0.396,-1.064 -0.521,-1.225 -1.04,-1.225 l 0,0 c -1.905,0 -3.687,4.938 -4.854,8.956 l 0,0 -0.553,1.915 c -0.124,0.463 -0.552,1.293 0.061,1.293 z"
         id="path53"
         inkscape:connector-curvature="0"
         style="clip-rule:evenodd;fill:url(#SVGID_4_);fill-rule:evenodd" /><path
         stroke-miterlimit="22.926"
         d="m 409.092,533.037 c 0.154,0.347 0.186,0.694 0.83,0.694 0.521,0 1.045,-0.304 1.045,-0.903 0,-1.592 -2.12,-5.309 -3.503,-8.886 l -0.371,-0.947 c -0.396,-1.063 -0.521,-1.225 -1.04,-1.225 -1.905,0 -3.687,4.94 -4.854,8.958 l -0.553,1.917 c -0.122,0.461 -0.552,1.29 0.062,1.29 0.491,0 0.646,-0.392 0.736,-0.619 l 0.955,-2.635 c 0.766,-2.1 1.688,-4.107 2.884,-6.139 1.29,2.7 2.182,4.454 3.226,7.039 l 0.583,1.456 z"
         id="path55"
         inkscape:connector-curvature="0"
         style="clip-rule:evenodd;fill:#ee7c00;fill-rule:evenodd;stroke:#f18d23;stroke-width:0.161;stroke-miterlimit:22.9260006" /><radialGradient
         id="SVGID_5_"
         cx="422.5791"
         cy="525.59473"
         r="25.586599"
         gradientTransform="matrix(0.3749,0,0,0.3749,239.1626,330.7769)"
         gradientUnits="userSpaceOnUse"><stop
           offset="0"
           style="stop-color:#FFEC00"
           id="stop58" /><stop
           offset="1"
           style="stop-color:#F6A300"
           id="stop60" /></radialGradient><path
         d="m 393.92,522.672 -1.442,0.463 c -1.272,0.414 -1.863,1.875 -0.307,1.293 l 0,0 1.134,-0.393 0.156,3.185 c 0.152,3.485 -0.523,7.714 1.475,7.714 0.95,0 0.89,-1.16 0.89,-3.283 l 0,0 c 0,-1.706 -0.154,-4.152 -0.738,-8.032 l 0,0 c 2.456,-0.809 5.436,-1.661 7.831,-2.214 l 0,0 0.984,-0.231 c 0.093,-0.022 0.123,-0.185 0.123,-0.255 l 0,0 c 0,-0.093 -0.03,-0.207 -0.123,-0.207 l 0,0 c -0.766,-10e-4 -6.668,0.898 -9.983,1.96 l 0,0 z"
         id="path62"
         inkscape:connector-curvature="0"
         style="clip-rule:evenodd;fill:url(#SVGID_5_);fill-rule:evenodd" /><path
         stroke-miterlimit="22.926"
         d="m 403.902,521.172 c 0.093,-0.021 0.123,-0.185 0.123,-0.254 0,-0.093 -0.03,-0.207 -0.123,-0.207 -0.766,0 -6.667,0.899 -9.982,1.961 l -1.444,0.463 c -1.271,0.414 -1.861,1.876 -0.305,1.293 l 1.134,-0.393 0.156,3.185 c 0.151,3.485 -0.523,7.712 1.475,7.712 0.95,0 0.89,-1.158 0.89,-3.28 0,-1.708 -0.153,-4.153 -0.738,-8.033 2.457,-0.809 5.437,-1.661 7.831,-2.215 l 0.983,-0.232 z"
         id="path64"
         inkscape:connector-curvature="0"
         style="clip-rule:evenodd;fill:#ee7c00;fill-rule:evenodd;stroke:#f18d23;stroke-width:0.161;stroke-miterlimit:22.9260006" /><radialGradient
         id="SVGID_6_"
         cx="350.92429"
         cy="523.94531"
         r="16.3708"
         gradientTransform="matrix(0.5605,0,0,0.5605,167.9326,234.4202)"
         gradientUnits="userSpaceOnUse"><stop
           offset="0"
           style="stop-color:#FFEC00"
           id="stop67" /><stop
           offset="1"
           style="stop-color:#F6A300"
           id="stop69" /></radialGradient><path
         d="m 359.893,530.893 c 0,-1.32 2.431,-2.691 4.549,-2.691 l 0,0 c 2.973,0 2.743,1.64 2.743,2.334 l 0,0 0,0.694 c -1.685,0.765 -4.032,1.213 -5.262,1.213 l 0,0 c -1.603,-10e-4 -2.03,-1.01 -2.03,-1.55 l 0,0 0,0 z m -0.944,-6.843 c 0,0.718 0.943,0.36 1.428,0.158 l 0,0 c 1.832,-0.785 3.433,-1.054 4.405,-1.054 l 0,0 c 2.087,0 2.546,0.92 2.546,2.041 l 0,-0.002 0,1.999 c -4.521,-0.854 -9.554,1.37 -9.554,4.172 0,1.863 2.602,2.289 3.891,2.289 l 0,0 c 2.002,0 3.805,-0.563 5.492,-1.435 l 0,0 c -0.489,0.715 -0.517,1.978 0.714,1.978 l 0,0 c 1.487,0 1.372,-0.945 1.372,-1.776 l 0,0 0,-0.673 c 1.001,-0.27 2.232,-0.673 2.232,-1.212 l 0,0 c 0,-0.271 -0.342,-0.494 -0.66,-0.494 l 0,0 c -0.369,0 -1.143,0.337 -1.483,0.561 l 0,0 0,-4.531 c 0,-1.526 0.056,-4.084 -3.748,-4.084 -2.603,-10e-4 -6.635,1.235 -6.635,2.063 l 0,0 z"
         id="path71"
         inkscape:connector-curvature="0"
         style="clip-rule:evenodd;fill:url(#SVGID_6_);fill-rule:evenodd" /><path
         stroke-miterlimit="22.926"
         d="m 369.246,531.747 c 1,-0.27 2.23,-0.673 2.23,-1.212 0,-0.27 -0.344,-0.494 -0.658,-0.494 -0.373,0 -1.145,0.337 -1.487,0.561 l 0,-4.531 c 0,-1.525 0.057,-4.084 -3.747,-4.084 -2.604,0 -6.635,1.235 -6.635,2.063 0,0.718 0.945,0.36 1.428,0.158 1.832,-0.785 3.433,-1.054 4.405,-1.054 2.087,0 2.547,0.92 2.547,2.041 l 0,1.997 c -4.52,-0.854 -9.555,1.368 -9.555,4.172 0,1.863 2.602,2.289 3.891,2.289 2.002,0 3.805,-0.563 5.492,-1.436 -0.489,0.718 -0.517,1.979 0.714,1.979 1.487,0 1.374,-0.945 1.374,-1.776 l 0,-0.673 10e-4,0 z m -2.062,-0.518 c -1.685,0.764 -4.032,1.213 -5.262,1.213 -1.601,0 -2.028,-1.01 -2.028,-1.549 0,-1.321 2.43,-2.691 4.547,-2.691 2.975,0 2.743,1.637 2.743,2.333 l 0,0.694 z"
         id="path73"
         inkscape:connector-curvature="0"
         style="clip-rule:evenodd;fill:#ee7c00;fill-rule:evenodd;stroke:#f18d23;stroke-width:0.1613;stroke-miterlimit:22.9260006" /><path
         d="m 375.474,540.743 c -0.335,-1.025 -1.385,-1.386 -2.082,-1.529 -0.697,-0.151 -2.465,0.3 -2.675,0.966 1.156,-0.36 3.453,-0.331 4.757,0.563 z"
         id="path75"
         inkscape:connector-curvature="0"
         style="clip-rule:evenodd;fill:#fffdf7;fill-rule:evenodd" /></g><g
       id="g77"><g
         id="g79"><path
           d="m 308.561,516.893 0.936,-27.34 c 1.677,-0.156 8.034,-0.351 9.633,0.507 l -0.858,10.102 2.535,-0.273 c 1.794,-6.318 5.577,-10.687 12.441,-10.687 8.814,0 13.338,5.265 13.338,13.65 0,9.75 -5.07,14.587 -12.987,14.587 -8.659,0 -11.623,-4.291 -13.261,-10.57 l -2.457,0.078 c 0,0 0.117,9.166 0.117,9.789 -1.442,0.937 -7.76,0.781 -9.437,0.157 z m 24.61,-5.421 c 3.393,0 4.407,-2.847 4.407,-8.62 0,-5.46 -1.209,-7.488 -4.329,-7.488 -2.886,0 -4.212,2.73 -4.212,7.996 0,5.537 1.014,8.112 4.134,8.112 z"
           id="path81"
           inkscape:connector-curvature="0"
           style="fill:#2e2a4c" /><path
           d="m 333.6,517.939 c -9.353,0 -12.136,-5.024 -13.642,-10.558 l -1.57,0.05 c 0.024,1.909 0.111,8.769 0.111,9.305 0,0.169 -0.086,0.327 -0.228,0.42 -0.998,0.646 -3.5,0.743 -4.903,0.743 -1.759,0 -3.982,-0.166 -4.981,-0.538 -0.202,-0.075 -0.333,-0.271 -0.325,-0.486 l 0.936,-27.339 c 0.008,-0.251 0.203,-0.458 0.453,-0.481 0.717,-0.066 2.237,-0.138 3.882,-0.138 3.135,0 5.165,0.236 6.034,0.703 0.176,0.094 0.279,0.284 0.262,0.483 l -0.807,9.497 1.599,-0.172 c 2.117,-7.117 6.432,-10.725 12.828,-10.725 8.794,0 13.838,5.158 13.838,14.15 0,9.587 -4.916,15.086 -13.487,15.086 z m -13.261,-11.57 c 0.227,0 0.426,0.153 0.484,0.374 1.597,6.12 4.38,10.196 12.777,10.196 8.053,0 12.487,-5.003 12.487,-14.087 0,-8.48 -4.56,-13.15 -12.838,-13.15 -5.992,0 -10.016,3.473 -11.96,10.323 -0.056,0.196 -0.225,0.338 -0.427,0.36 l -2.535,0.273 c -0.15,0.017 -0.297,-0.036 -0.403,-0.14 -0.107,-0.104 -0.161,-0.251 -0.148,-0.4 l 0.827,-9.741 c -0.878,-0.295 -2.754,-0.461 -5.269,-0.461 -1.328,0 -2.567,0.047 -3.352,0.1 l -0.908,26.51 c 0.897,0.224 2.569,0.373 4.294,0.373 1.864,0 3.42,-0.18 4.129,-0.467 -0.016,-1.725 -0.115,-9.479 -0.115,-9.479 -0.003,-0.272 0.212,-0.498 0.484,-0.506 l 2.457,-0.078 c 0.006,0 0.011,0 0.016,0 z m 12.832,5.603 c -4.073,0 -4.634,-4.139 -4.634,-8.612 0,-5.717 1.542,-8.496 4.712,-8.496 4.008,0 4.829,3.193 4.829,7.988 0,4.736 -0.595,9.12 -4.907,9.12 z m 0.078,-16.108 c -0.918,0 -3.712,0 -3.712,7.496 0,6.339 1.391,7.612 3.634,7.612 2.848,0 3.907,-2.201 3.907,-8.12 0,-5.845 -1.404,-6.988 -3.829,-6.988 z"
           id="path83"
           inkscape:connector-curvature="0"
           style="fill:#ffffff" /></g><g
         id="g85"><path
           d="m 359.066,498.445 5.382,-0.117 -0.234,-8.502 c 1.17,-0.897 8.736,-1.014 9.828,-0.117 l -1.17,27.379 c -0.858,0.702 -8.658,0.468 -9.75,-0.078 l 1.092,-10.375 -5.616,-0.156 -0.273,10.335 c -0.624,0.78 -7.917,0.741 -9.166,0.391 l 1.131,-27.613 c 0.819,-0.702 8.463,-0.819 9.868,-0.117 l -1.092,8.97 z"
           id="path87"
           inkscape:connector-curvature="0"
           style="fill:#2e2a4c" /><path
           d="m 368.88,518.024 c -1.948,0 -5.149,-0.151 -5.982,-0.567 -0.187,-0.093 -0.295,-0.292 -0.273,-0.5 l 1.036,-9.837 -4.576,-0.127 -0.26,9.835 c -0.003,0.108 -0.042,0.214 -0.109,0.299 -0.434,0.542 -2.363,0.817 -5.734,0.817 -1.402,0 -3.279,-0.067 -3.957,-0.258 -0.223,-0.063 -0.374,-0.271 -0.364,-0.502 l 1.131,-27.613 c 0.005,-0.139 0.069,-0.269 0.174,-0.359 0.768,-0.658 4.469,-0.709 5.584,-0.709 1.138,0 3.885,0.051 4.832,0.524 0.189,0.095 0.298,0.298 0.272,0.508 l -1.022,8.398 4.303,-0.094 -0.22,-8 c -0.004,-0.16 0.068,-0.313 0.196,-0.411 1.062,-0.813 5.202,-0.837 5.67,-0.837 1.453,0 4.005,0.095 4.779,0.731 0.122,0.1 0.189,0.25 0.182,0.408 l -1.17,27.379 c -0.006,0.143 -0.073,0.275 -0.183,0.365 -0.166,0.136 -0.671,0.55 -4.309,0.55 z m -5.218,-1.364 c 0.832,0.188 2.903,0.364 5.219,0.364 2.068,0 3.105,-0.145 3.505,-0.259 l 1.144,-26.771 c -0.493,-0.188 -1.765,-0.402 -3.949,-0.402 -2.346,0 -4.184,0.25 -4.858,0.523 l 0.226,8.2 c 0.003,0.133 -0.046,0.262 -0.138,0.358 -0.092,0.096 -0.218,0.152 -0.352,0.155 l -5.382,0.117 c -0.164,-0.016 -0.284,-0.057 -0.381,-0.165 -0.098,-0.107 -0.143,-0.252 -0.125,-0.396 l 1.043,-8.572 c -0.658,-0.167 -2.044,-0.31 -4.063,-0.31 -2.55,0 -4.216,0.217 -4.771,0.399 l -1.102,26.891 c 0.626,0.083 1.807,0.151 3.305,0.151 2.828,0 4.377,-0.228 4.851,-0.404 l 0.266,-10.074 c 0.004,-0.133 0.06,-0.258 0.156,-0.35 0.096,-0.091 0.222,-0.13 0.357,-0.137 l 5.616,0.156 c 0.14,0.004 0.271,0.066 0.362,0.17 0.092,0.105 0.136,0.243 0.121,0.382 l -1.05,9.974 z"
           id="path89"
           inkscape:connector-curvature="0"
           style="fill:#ffffff" /></g><g
         id="g91"><path
           d="m 386.834,505.075 8.424,-14.898 c 1.599,-0.585 7.645,-0.585 9.204,0.039 l -0.078,26.326 c -1.833,0.663 -7.995,0.819 -9.828,0.39 l 1.872,-13.923 -9.672,14.353 c -1.755,0.312 -8.503,0 -9.556,-1.287 l 0.663,-25.819 c 1.794,-0.351 9.165,-0.312 10.882,0.195 l -1.911,14.624 z"
           id="path93"
           inkscape:connector-curvature="0"
           style="fill:#2e2a4c" /><path
           d="m 384.836,517.974 c -0.067,0 -6.743,-0.019 -8.023,-1.583 -0.076,-0.093 -0.116,-0.21 -0.113,-0.329 l 0.663,-25.819 c 0.006,-0.234 0.174,-0.433 0.404,-0.478 0.767,-0.15 2.498,-0.24 4.63,-0.24 2.297,0 5.375,0.117 6.489,0.446 0.235,0.069 0.386,0.3 0.354,0.544 l -1.579,12.08 7.16,-12.664 c 0.059,-0.104 0.152,-0.183 0.264,-0.224 1.178,-0.431 3.893,-0.464 4.696,-0.464 0.843,0 3.686,0.037 4.865,0.509 0.19,0.076 0.315,0.261 0.314,0.466 l -0.078,26.327 c -0.001,0.21 -0.133,0.396 -0.33,0.468 -1.26,0.456 -4.198,0.66 -6.552,0.66 -0.926,0 -2.619,-0.033 -3.561,-0.254 -0.251,-0.059 -0.416,-0.298 -0.381,-0.553 l 1.587,-11.804 -8.477,12.579 c -0.076,0.112 -0.194,0.189 -0.328,0.213 -0.553,0.098 -1.396,0.12 -2.004,0.12 z m -7.13,-2.105 c 0.798,0.609 3.933,1.104 7.13,1.104 0.663,0 1.24,-0.027 1.629,-0.074 l 9.548,-14.17 c 0.131,-0.193 0.376,-0.269 0.593,-0.188 0.217,0.083 0.349,0.304 0.317,0.534 l -1.808,13.45 c 0.674,0.095 1.688,0.147 2.887,0.147 2.379,0 4.738,-0.205 5.883,-0.501 l 0.076,-25.589 c -0.817,-0.206 -2.412,-0.339 -4.179,-0.339 -1.827,0 -3.426,0.136 -4.186,0.35 l -8.327,14.729 c -0.118,0.208 -0.369,0.305 -0.594,0.228 -0.228,-0.076 -0.368,-0.302 -0.338,-0.539 l 1.853,-14.173 c -1.077,-0.19 -3.286,-0.313 -5.793,-0.313 -1.725,0 -3.207,0.061 -4.045,0.162 l -0.646,25.182 z"
           id="path95"
           inkscape:connector-curvature="0"
           style="fill:#ffffff" /></g><g
         id="g97"><path
           d="m 434.102,503.047 c 0,9.672 -5.305,14.743 -13.612,14.743 -7.526,0 -13.065,-3.354 -13.065,-14.158 0,-9.009 5.422,-14.665 13.417,-14.665 7.955,0.001 13.26,4.096 13.26,14.08 z m -13.456,8.307 c 3.003,0 3.705,-2.496 3.705,-8.658 0,-5.07 -0.546,-7.449 -3.393,-7.449 -2.848,0 -3.822,2.535 -3.822,8.541 0,5.031 0.468,7.566 3.51,7.566 z"
           id="path99"
           inkscape:connector-curvature="0"
           style="fill:#2e2a4c" /><path
           d="m 420.489,518.29 c -9.128,0 -13.565,-4.795 -13.565,-14.658 0,-9.212 5.463,-15.165 13.917,-15.165 9.002,0 13.761,5.042 13.761,14.58 0,9.545 -5.276,15.243 -14.113,15.243 z m 0.352,-28.822 c -7.847,0 -12.917,5.56 -12.917,14.165 0,9.19 4.11,13.658 12.565,13.658 8.333,0 13.112,-5.191 13.112,-14.243 10e-4,-9.011 -4.292,-13.58 -12.76,-13.58 z m -0.195,22.386 c -3.715,0 -4.01,-3.496 -4.01,-8.066 0,-5.427 0.735,-9.041 4.322,-9.041 3.6,0 3.893,3.6 3.893,7.949 0,6.075 -0.651,9.158 -4.205,9.158 z m 0.312,-16.107 c -2.051,0 -3.322,1.345 -3.322,8.041 0,5.481 0.675,7.066 3.01,7.066 2.456,0 3.205,-1.906 3.205,-8.158 0,-5.325 -0.676,-6.949 -2.893,-6.949 z"
           id="path101"
           inkscape:connector-curvature="0"
           style="fill:#ffffff" /></g><g
         id="g103"><path
           d="m 437.571,490.138 c 2.77,-0.741 7.449,-1.053 10.452,-1.053 8.814,0 13.144,2.925 13.144,9.672 0,6.163 -4.758,9.517 -10.608,9.517 -1.794,0 -3.51,-0.234 -4.524,-0.741 l 0.078,9.399 c -1.131,1.209 -8.151,1.092 -9.438,0.195 l 0.896,-26.989 z m 8.425,11.583 c 0.507,0.117 1.248,0.312 2.184,0.312 1.989,0 3.627,-1.014 3.627,-3.666 0,-2.106 -1.209,-3.198 -3.276,-3.198 -0.975,0 -1.638,0.117 -2.573,0.273 l 0.038,6.279 z"
           id="path105"
           inkscape:connector-curvature="0"
           style="fill:#2e2a4c" /><path
           d="m 441.337,518.319 c -1.765,0 -4.12,-0.205 -4.948,-0.782 -0.139,-0.097 -0.219,-0.258 -0.214,-0.427 l 0.896,-26.989 c 0.008,-0.22 0.158,-0.41 0.371,-0.466 2.746,-0.735 7.41,-1.07 10.581,-1.07 9.309,0 13.644,3.232 13.644,10.172 0,5.991 -4.464,10.017 -11.108,10.017 -0.988,0 -2.683,-0.072 -4.019,-0.501 l 0.072,8.656 c 10e-4,0.128 -0.047,0.252 -0.135,0.346 -0.882,0.942 -3.888,1.044 -5.14,1.044 z m -4.152,-1.489 c 0.639,0.254 2.166,0.489 4.152,0.489 2.207,0 3.744,-0.299 4.273,-0.623 l -0.076,-9.16 c -10e-4,-0.174 0.088,-0.336 0.235,-0.429 0.147,-0.093 0.333,-0.101 0.488,-0.023 0.875,0.438 2.442,0.688 4.301,0.688 6.141,0 10.108,-3.539 10.108,-9.017 0,-6.343 -3.899,-9.172 -12.644,-9.172 -2.973,0 -7.27,0.296 -9.965,0.945 l -0.872,26.302 z m 10.995,-14.297 c -0.913,0 -1.636,-0.17 -2.162,-0.293 l -0.134,-0.031 c -0.226,-0.052 -0.387,-0.252 -0.388,-0.484 l -0.039,-6.279 c -0.002,-0.246 0.176,-0.456 0.418,-0.496 l 0.108,-0.018 c 0.876,-0.146 1.569,-0.262 2.547,-0.262 2.4,0 3.776,1.348 3.776,3.698 0.001,2.608 -1.542,4.165 -4.126,4.165 z m -1.687,-1.209 c 0.449,0.101 1.019,0.209 1.687,0.209 1.427,0 3.127,-0.549 3.127,-3.166 0,-1.791 -0.935,-2.698 -2.776,-2.698 -0.784,0 -1.359,0.08 -2.07,0.196 l 0.032,5.459 z"
           id="path107"
           inkscape:connector-curvature="0"
           style="fill:#ffffff" /></g></g></g></svg>