<?xml version="1.0" encoding="utf-8"?>
<!-- Generator: Adobe Illustrator 16.0.0, SVG Export Plug-In . SVG Version: 6.00 Build 0)  -->
<!DOCTYPE svg PUBLIC "-//W3C//DTD SVG 1.1//EN" "http://www.w3.org/Graphics/SVG/1.1/DTD/svg11.dtd">
<svg version="1.1" id="Layer_6" xmlns="http://www.w3.org/2000/svg" xmlns:xlink="http://www.w3.org/1999/xlink" x="0px" y="0px"
	 width="768px" height="1024px" viewBox="0 0 768 1024" enable-background="new 0 0 768 1024" xml:space="preserve">
<g>
	<path fill="#FFFFFF" d="M626.418,440.447l0.062-0.02l-1.689-5.233c-0.009-0.026-0.018-0.051-0.025-0.077l-1.666-5.158l-0.06,0.019
		c-16.724-48.231-47.666-89.77-88.992-120.39C491.83,278.307,441,261.245,389,260.072V261h-4.704L384,260.498
		c-0.185,0-0.812-0.245-0.996-0.245L378,259.997v0.052c-53,1.033-102.119,17.992-144.434,49.198
		c-41.326,30.478-71.712,71.875-88.563,119.977l0.05-0.02l-1.651,5.229l-1.679,5.228l0.076,0.02
		c-7.174,23.718-10.806,48.354-10.806,73.319c0,40.849,9.442,79.841,28.056,115.892c16.92,32.771,41.24,61.865,70.508,84.473
		l-0.046,0.064l4.4,3.246l4.452,3.286l0.038-0.051C281.162,750.08,331.38,766,384,766c51.867,0,101.496-15.51,143.895-44.903
		l0.036,0.051l4.456-3.231l4.448-3.227l-0.047-0.065c29.728-22.575,54.447-51.779,71.67-84.792C627.13,594.039,637,553.64,637,513
		C637,488.307,633.438,463.928,626.418,440.447z M389.868,271.074c101.109,2.406,189.51,66.822,222.705,162.286L510.635,466.3
		l-37.943,12.261l-83.044-61.926L389.868,271.074z M378.868,271.056l-0.222,145.5l-85.475,60.99l-22.309-7.287l-115.184-37.622
		C189.16,337.359,277.741,273.188,378.868,271.056z M236.03,704.487C177.049,658.813,142,587.65,142,513
		c0-23.802,3.452-47.291,10.267-69.904l112.973,36.899l24.494,8l31.99,98.934L236.03,704.487z M384,755
		c-50.275,0-98.254-15.186-139.122-43.978l85.744-117.626l104.604-0.275l86.218,119.068C480.936,740.215,433.534,755,384,755z
		 M530.347,705.729l-26.418-36.484l-59.802-82.587l31.91-97.617l139.916-45.211C622.622,466.215,626,489.457,626,513
		C626,588.45,590.344,660.08,530.347,705.729z"/>
	<g>
		
			<path fill-rule="evenodd" clip-rule="evenodd" fill="#E41F27" stroke="#E41F27" stroke-width="0.161" stroke-miterlimit="22.926" d="
			M375.663,540.454c1.75,1.94,1.625,4.912-0.277,6.634c-1.911,1.717-4.875,1.524-6.627-0.41c-1.752-1.948-1.628-4.919,0.281-6.637
			C370.947,538.322,373.914,538.507,375.663,540.454z"/>
		<path fill-rule="evenodd" clip-rule="evenodd" fill="#F18D23" d="M369.246,531.747c1-0.27,2.23-0.673,2.23-1.212
			c0-0.27-0.344-0.494-0.658-0.494c-0.373,0-1.145,0.337-1.487,0.561v-4.531c0-1.525,0.057-4.084-3.747-4.084
			c-2.604,0-6.635,1.235-6.635,2.063c0,0.718,0.945,0.36,1.428,0.158c1.832-0.785,3.433-1.054,4.405-1.054
			c2.087,0,2.547,0.92,2.547,2.041v1.997c-4.52-0.854-9.555,1.368-9.555,4.172c0,1.863,2.602,2.289,3.891,2.289
			c2.002,0,3.805-0.563,5.492-1.436c-0.489,0.718-0.517,1.979,0.714,1.979c1.487,0,1.374-0.945,1.374-1.776V531.747L369.246,531.747
			z M367.184,531.229c-1.685,0.764-4.032,1.213-5.262,1.213c-1.601,0-2.028-1.01-2.028-1.549c0-1.321,2.43-2.691,4.547-2.691
			c2.975,0,2.743,1.637,2.743,2.333V531.229z"/>
		<path fill-rule="evenodd" clip-rule="evenodd" fill="none" stroke="#F18D23" stroke-width="0.161" stroke-miterlimit="22.926" d="
			M369.246,531.747c1-0.27,2.23-0.673,2.23-1.212c0-0.27-0.344-0.494-0.658-0.494c-0.373,0-1.145,0.337-1.487,0.561v-4.531
			c0-1.525,0.057-4.084-3.747-4.084c-2.604,0-6.635,1.235-6.635,2.063c0,0.718,0.945,0.36,1.428,0.158
			c1.832-0.785,3.433-1.054,4.405-1.054c2.087,0,2.547,0.92,2.547,2.041v1.997c-4.52-0.854-9.555,1.368-9.555,4.172
			c0,1.863,2.602,2.289,3.891,2.289c2.002,0,3.805-0.563,5.492-1.436c-0.489,0.718-0.517,1.979,0.714,1.979
			c1.487,0,1.374-0.945,1.374-1.776V531.747L369.246,531.747z M367.184,531.229c-1.685,0.764-4.032,1.213-5.262,1.213
			c-1.601,0-2.028-1.01-2.028-1.549c0-1.321,2.43-2.691,4.547-2.691c2.975,0,2.743,1.637,2.743,2.333V531.229z"/>
		<path fill-rule="evenodd" clip-rule="evenodd" fill="#F18D23" d="M403.902,521.172c0.093-0.021,0.123-0.185,0.123-0.254
			c0-0.093-0.03-0.207-0.123-0.207c-0.766,0-6.667,0.899-9.982,1.961l-1.444,0.463c-1.271,0.414-1.861,1.876-0.305,1.293
			l1.134-0.393l0.156,3.185c0.151,3.485-0.523,7.712,1.475,7.712c0.95,0,0.89-1.158,0.89-3.28c0-1.708-0.153-4.153-0.738-8.033
			c2.457-0.809,5.437-1.661,7.831-2.215L403.902,521.172z"/>
		<path fill-rule="evenodd" clip-rule="evenodd" fill="none" stroke="#F18D23" stroke-width="0.161" stroke-miterlimit="22.926" d="
			M403.902,521.172c0.093-0.021,0.123-0.185,0.123-0.254c0-0.093-0.03-0.207-0.123-0.207c-0.766,0-6.667,0.899-9.982,1.961
			l-1.444,0.463c-1.271,0.414-1.861,1.876-0.305,1.293l1.134-0.393l0.156,3.185c0.151,3.485-0.523,7.712,1.475,7.712
			c0.95,0,0.89-1.158,0.89-3.28c0-1.708-0.153-4.153-0.738-8.033c2.457-0.809,5.437-1.661,7.831-2.215L403.902,521.172z"/>
		
			<path fill-rule="evenodd" clip-rule="evenodd" fill="#F18D23" stroke="#F18D23" stroke-width="0.161" stroke-miterlimit="22.926" d="
			M375.667,540.395c-1.753-1.939-4.717-2.124-6.624-0.411c-1.907,1.714-2.036,4.687-0.285,6.633
			C369.71,543.304,372.141,540.826,375.667,540.395z"/>
		
			<radialGradient id="SVGID_1_" cx="376.1631" cy="553.4766" r="52.3752" gradientTransform="matrix(0.3749 0 0 0.3749 239.1626 330.7769)" gradientUnits="userSpaceOnUse">
			<stop  offset="0" style="stop-color:#FFEC00"/>
			<stop  offset="1" style="stop-color:#F6A300"/>
		</radialGradient>
		<path fill-rule="evenodd" clip-rule="evenodd" fill="url(#SVGID_1_)" d="M371.109,521.7c-0.948,1.733,1.189,6.268,2.924,8.828l0,0
			c4.916,7.247,9.521,4.313,12.121,1.38l0,0c1.193-1.351,1.965-2.697,2.148-3.059l0,0c-0.704,4.02-2.172,8.564-4.124,12.366l0,0
			c-2.292,4.464-5.22,7.98-7.849,9.571l0,0c-2.818,1.707-5.734,1.523-6.163,1.652l0,0c-1.106,0.326,0.882,2.819,3.521,2.356v-0.001
			c8.379-1.467,16.346-17.256,16.734-30.838l0,0c0.032-2.665-1.056-0.93-3.259,3.207l0,0c-4.307,7.87-10.147,8.523-14.71-3.103l0,0
			c-0.226-0.576-0.803-2.484-1.192-2.484l0,0C371.206,521.577,371.155,521.615,371.109,521.7L371.109,521.7z"/>
		
			<path fill-rule="evenodd" clip-rule="evenodd" fill="#EE7C00" stroke="#F18D23" stroke-width="0.1613" stroke-miterlimit="22.926" d="
			M390.423,523.957c0.033-2.665-1.056-0.93-3.259,3.207c-4.308,7.87-10.146,8.523-14.71-3.104c-0.257-0.656-0.972-3.046-1.345-2.361
			c-0.948,1.734,1.189,6.269,2.925,8.829c7.823,11.534,14.862-2.723,14.274-1.72c-0.701,4.028-2.17,8.591-4.13,12.407
			c-2.292,4.462-5.22,7.981-7.849,9.571c-2.818,1.708-5.734,1.525-6.164,1.653c-1.104,0.325,0.883,2.817,3.522,2.355
			C382.067,553.33,390.034,537.539,390.423,523.957z"/>
		
			<radialGradient id="SVGID_2_" cx="293.375" cy="527.5986" r="25.0935" gradientTransform="matrix(0.3749 0 0 0.3749 239.1626 330.7769)" gradientUnits="userSpaceOnUse">
			<stop  offset="0" style="stop-color:#FFEC00"/>
			<stop  offset="1" style="stop-color:#F6A300"/>
		</radialGradient>
		<path fill-rule="evenodd" clip-rule="evenodd" fill="url(#SVGID_2_)" d="M343.545,524.373l-0.487,1.464
			c-0.489,1.441-0.777,3.312-1.265,6.624l0,0l-0.115,0.788c-0.143,0.922,0.401,1.013,0.689,1.013l0,0
			c0.489,0,1.208-0.202,1.236-0.72l0,0l0.027-0.856c0.085-2.637-0.027-4.46,1.207-6.917l0,0c0.4,1.307,1.32,3.988,1.868,5.272l0,0
			l0.43,1.014c0.402,0.969,0.573,1.082,1.004,1.082l0,0c0.861,0,0.718-0.383,4.279-7.568l0,0c0.374,0.967,0.948,2.701,1.091,3.534
			l0,0l0.634,3.358c0.227,1.284,1.061,1.373,1.407,1.373l0,0c1.522,0,0.804-2.073,0.543-2.95l0,0l-0.429-1.51
			c-0.345-1.191-0.431-1.284-0.892-2.839l0,0c-0.255-0.967-0.43-1.667-0.66-2.275l0,0l-0.287-0.769
			c-0.116-0.289-0.344-0.426-0.746-0.426l0,0c-0.775,0-0.748,0.474-1.177,1.352l0,0l-0.575,1.195
			c-0.202,0.426-0.574,1.216-2.414,5.337l0,0c-1.979-3.896-1.979-5.518-2.325-6.418l0,0l-0.345-0.924
			c-0.259-0.722-0.546-0.63-0.804-0.63l0,0c-0.192,0-0.374-0.021-0.546-0.021l0,0C344.397,522.956,343.971,523.119,343.545,524.373
			L343.545,524.373z"/>
		
			<path fill-rule="evenodd" clip-rule="evenodd" fill="#EE7C00" stroke="#F18D23" stroke-width="0.161" stroke-miterlimit="22.926" d="
			M354.143,532.461c0.229,1.284,1.062,1.373,1.406,1.373c1.523,0,0.806-2.072,0.546-2.95l-0.431-1.51
			c-0.344-1.192-0.43-1.284-0.89-2.839c-0.256-0.967-0.431-1.667-0.661-2.275l-0.286-0.767c-0.117-0.291-0.346-0.428-0.746-0.428
			c-0.776,0-0.749,0.474-1.18,1.353l-0.574,1.194c-0.201,0.427-0.573,1.216-2.413,5.337c-1.979-3.896-1.979-5.518-2.325-6.419
			l-0.345-0.923c-0.259-0.722-0.544-0.63-0.804-0.63c-0.747,0-1.321-0.293-1.895,1.396l-0.489,1.464
			c-0.488,1.442-0.775,3.312-1.264,6.624l-0.115,0.788c-0.143,0.922,0.402,1.013,0.689,1.013c0.489,0,1.208-0.202,1.235-0.72
			l0.03-0.855c0.085-2.637-0.03-4.461,1.206-6.918c0.401,1.307,1.321,3.988,1.868,5.272l0.43,1.013
			c0.401,0.97,0.573,1.081,1.005,1.081c0.86,0,0.718-0.381,4.278-7.566c0.374,0.966,0.947,2.701,1.09,3.535L354.143,532.461z"/>
		
			<radialGradient id="SVGID_3_" cx="478.4648" cy="526.8545" r="21.9256" gradientTransform="matrix(0.3749 0 0 0.3749 239.1626 330.7769)" gradientUnits="userSpaceOnUse">
			<stop  offset="0" style="stop-color:#FFEC00"/>
			<stop  offset="1" style="stop-color:#F6A300"/>
		</radialGradient>
		<path fill-rule="evenodd" clip-rule="evenodd" fill="url(#SVGID_3_)" d="M414.13,522.419h-0.04c-0.324,0-1.281,0.043-1.25,2.032
			l0,0l0.028,2.952c0.034,3.648,0.612,6.279,3.687,6.279l0,0c1.871,0,3.806-1.359,4.791-2.769l0,0
			c0.033,1.936,0.828,3.257,1.658,3.257c1.997,0,1.106-2.035,0.954-2.497l0,0l-0.37-1.154c-0.584-1.776-0.556-3.691-0.556-4.36l0,0
			v-1.987c0-0.925-0.12-1.593-1.01-1.593l0,0c-1.201,0-1.201,1.062-1.166,2.009l0,0l0.06,1.917c0.062,1.754,0.275,5.562-2.92,5.562
			l0,0c-2.886,0-2.764-2.77-2.764-4.039l0,0v-3.207c0-2.358-0.226-2.401-1.013-2.401l0,0
			C414.189,522.419,414.16,522.419,414.13,522.419L414.13,522.419z"/>
		
			<path fill-rule="evenodd" clip-rule="evenodd" fill="#EE7C00" stroke="#F18D23" stroke-width="0.161" stroke-miterlimit="22.926" d="
			M423.588,530.521c-0.584-1.777-0.554-3.692-0.554-4.361v-1.987c0-0.922-0.122-1.593-1.013-1.593c-1.197,0-1.197,1.062-1.167,2.009
			l0.06,1.917c0.063,1.754,0.276,5.562-2.918,5.562c-2.886,0-2.764-2.77-2.764-4.039v-3.207c0-2.448-0.244-2.4-1.103-2.4
			c-0.277,0-1.321-0.048-1.29,2.03l0.028,2.954c0.034,3.647,0.613,6.278,3.687,6.278c1.871,0,3.808-1.36,4.789-2.769
			c0.035,1.938,0.83,3.257,1.66,3.257c1.997,0,1.106-2.035,0.954-2.497L423.588,530.521z"/>
		
			<radialGradient id="SVGID_4_" cx="444.0557" cy="525.6797" r="21.5671" gradientTransform="matrix(0.3749 0 0 0.3749 239.1626 330.7769)" gradientUnits="userSpaceOnUse">
			<stop  offset="0" style="stop-color:#FFEC00"/>
			<stop  offset="1" style="stop-color:#F6A300"/>
		</radialGradient>
		<path fill-rule="evenodd" clip-rule="evenodd" fill="url(#SVGID_4_)" d="M400.707,533.936h0.022
			c0.474-0.01,0.625-0.394,0.714-0.622l0,0l0.955-2.632c0.766-2.101,1.688-4.106,2.886-6.139l0,0c1.288,2.7,2.178,4.452,3.224,7.041
			l0,0l0.586,1.453c0.152,0.345,0.184,0.694,0.828,0.694l0,0c0.521,0,1.046-0.304,1.046-0.903l0,0c0-1.592-2.122-5.309-3.506-8.887
			l0,0l-0.369-0.944c-0.396-1.064-0.521-1.225-1.04-1.225l0,0c-1.905,0-3.687,4.938-4.854,8.956l0,0l-0.553,1.915
			C400.522,533.106,400.094,533.936,400.707,533.936z"/>
		
			<path fill-rule="evenodd" clip-rule="evenodd" fill="#EE7C00" stroke="#F18D23" stroke-width="0.161" stroke-miterlimit="22.926" d="
			M409.092,533.037c0.154,0.347,0.186,0.694,0.83,0.694c0.521,0,1.045-0.304,1.045-0.903c0-1.592-2.12-5.309-3.503-8.886
			l-0.371-0.947c-0.396-1.063-0.521-1.225-1.04-1.225c-1.905,0-3.687,4.94-4.854,8.958l-0.553,1.917
			c-0.122,0.461-0.552,1.29,0.062,1.29c0.491,0,0.646-0.392,0.736-0.619l0.955-2.635c0.766-2.1,1.688-4.107,2.884-6.139
			c1.29,2.7,2.182,4.454,3.226,7.039L409.092,533.037z"/>
		
			<radialGradient id="SVGID_5_" cx="422.5791" cy="525.5947" r="25.5866" gradientTransform="matrix(0.3749 0 0 0.3749 239.1626 330.7769)" gradientUnits="userSpaceOnUse">
			<stop  offset="0" style="stop-color:#FFEC00"/>
			<stop  offset="1" style="stop-color:#F6A300"/>
		</radialGradient>
		<path fill-rule="evenodd" clip-rule="evenodd" fill="url(#SVGID_5_)" d="M393.92,522.672l-1.442,0.463
			c-1.272,0.414-1.863,1.875-0.307,1.293l0,0l1.134-0.393l0.156,3.185c0.152,3.485-0.523,7.714,1.475,7.714
			c0.95,0,0.89-1.16,0.89-3.283l0,0c0-1.706-0.154-4.152-0.738-8.032l0,0c2.456-0.809,5.436-1.661,7.831-2.214l0,0l0.984-0.231
			c0.093-0.022,0.123-0.185,0.123-0.255l0,0c0-0.093-0.03-0.207-0.123-0.207l0,0C403.137,520.711,397.235,521.61,393.92,522.672
			L393.92,522.672z"/>
		
			<path fill-rule="evenodd" clip-rule="evenodd" fill="#EE7C00" stroke="#F18D23" stroke-width="0.161" stroke-miterlimit="22.926" d="
			M403.902,521.172c0.093-0.021,0.123-0.185,0.123-0.254c0-0.093-0.03-0.207-0.123-0.207c-0.766,0-6.667,0.899-9.982,1.961
			l-1.444,0.463c-1.271,0.414-1.861,1.876-0.305,1.293l1.134-0.393l0.156,3.185c0.151,3.485-0.523,7.712,1.475,7.712
			c0.95,0,0.89-1.158,0.89-3.28c0-1.708-0.153-4.153-0.738-8.033c2.457-0.809,5.437-1.661,7.831-2.215L403.902,521.172z"/>
		
			<radialGradient id="SVGID_6_" cx="350.9243" cy="523.9453" r="16.3708" gradientTransform="matrix(0.5605 0 0 0.5605 167.9326 234.4202)" gradientUnits="userSpaceOnUse">
			<stop  offset="0" style="stop-color:#FFEC00"/>
			<stop  offset="1" style="stop-color:#F6A300"/>
		</radialGradient>
		<path fill-rule="evenodd" clip-rule="evenodd" fill="url(#SVGID_6_)" d="M359.893,530.893c0-1.32,2.431-2.691,4.549-2.691l0,0
			c2.973,0,2.743,1.64,2.743,2.334l0,0v0.694c-1.685,0.765-4.032,1.213-5.262,1.213l0,0
			C360.32,532.442,359.893,531.433,359.893,530.893L359.893,530.893L359.893,530.893z M358.949,524.05
			c0,0.718,0.943,0.36,1.428,0.158l0,0c1.832-0.785,3.433-1.054,4.405-1.054l0,0c2.087,0,2.546,0.92,2.546,2.041v-0.002v1.999
			c-4.521-0.854-9.554,1.37-9.554,4.172c0,1.863,2.602,2.289,3.891,2.289l0,0c2.002,0,3.805-0.563,5.492-1.435l0,0
			c-0.489,0.715-0.517,1.978,0.714,1.978l0,0c1.487,0,1.372-0.945,1.372-1.776l0,0v-0.673c1.001-0.27,2.232-0.673,2.232-1.212l0,0
			c0-0.271-0.342-0.494-0.66-0.494l0,0c-0.369,0-1.143,0.337-1.483,0.561l0,0v-4.531c0-1.526,0.056-4.084-3.748-4.084
			C362.981,521.986,358.949,523.222,358.949,524.05L358.949,524.05z"/>
		
			<path fill-rule="evenodd" clip-rule="evenodd" fill="#EE7C00" stroke="#F18D23" stroke-width="0.1613" stroke-miterlimit="22.926" d="
			M369.246,531.747c1-0.27,2.23-0.673,2.23-1.212c0-0.27-0.344-0.494-0.658-0.494c-0.373,0-1.145,0.337-1.487,0.561v-4.531
			c0-1.525,0.057-4.084-3.747-4.084c-2.604,0-6.635,1.235-6.635,2.063c0,0.718,0.945,0.36,1.428,0.158
			c1.832-0.785,3.433-1.054,4.405-1.054c2.087,0,2.547,0.92,2.547,2.041v1.997c-4.52-0.854-9.555,1.368-9.555,4.172
			c0,1.863,2.602,2.289,3.891,2.289c2.002,0,3.805-0.563,5.492-1.436c-0.489,0.718-0.517,1.979,0.714,1.979
			c1.487,0,1.374-0.945,1.374-1.776V531.747L369.246,531.747z M367.184,531.229c-1.685,0.764-4.032,1.213-5.262,1.213
			c-1.601,0-2.028-1.01-2.028-1.549c0-1.321,2.43-2.691,4.547-2.691c2.975,0,2.743,1.637,2.743,2.333V531.229z"/>
		<path fill-rule="evenodd" clip-rule="evenodd" fill="#FFFDF7" d="M375.474,540.743c-0.335-1.025-1.385-1.386-2.082-1.529
			c-0.697-0.151-2.465,0.3-2.675,0.966C371.873,539.82,374.17,539.849,375.474,540.743z"/>
	</g>
	<g>
		<g>
			<path fill="#2E2A4C" d="M308.561,516.893l0.936-27.34c1.677-0.156,8.034-0.351,9.633,0.507l-0.858,10.102l2.535-0.273
				c1.794-6.318,5.577-10.687,12.441-10.687c8.814,0,13.338,5.265,13.338,13.65c0,9.75-5.07,14.587-12.987,14.587
				c-8.659,0-11.623-4.291-13.261-10.57l-2.457,0.078c0,0,0.117,9.166,0.117,9.789C316.556,517.673,310.238,517.517,308.561,516.893
				z M333.171,511.472c3.393,0,4.407-2.847,4.407-8.62c0-5.46-1.209-7.488-4.329-7.488c-2.886,0-4.212,2.73-4.212,7.996
				C329.037,508.897,330.051,511.472,333.171,511.472z"/>
			<path fill="#FFFFFF" d="M333.6,517.939c-9.353,0-12.136-5.024-13.642-10.558l-1.57,0.05c0.024,1.909,0.111,8.769,0.111,9.305
				c0,0.169-0.086,0.327-0.228,0.42c-0.998,0.646-3.5,0.743-4.903,0.743c-1.759,0-3.982-0.166-4.981-0.538
				c-0.202-0.075-0.333-0.271-0.325-0.486l0.936-27.339c0.008-0.251,0.203-0.458,0.453-0.481c0.717-0.066,2.237-0.138,3.882-0.138
				c3.135,0,5.165,0.236,6.034,0.703c0.176,0.094,0.279,0.284,0.262,0.483l-0.807,9.497l1.599-0.172
				c2.117-7.117,6.432-10.725,12.828-10.725c8.794,0,13.838,5.158,13.838,14.15C347.087,512.44,342.171,517.939,333.6,517.939z
				 M320.339,506.369c0.227,0,0.426,0.153,0.484,0.374c1.597,6.12,4.38,10.196,12.777,10.196c8.053,0,12.487-5.003,12.487-14.087
				c0-8.48-4.56-13.15-12.838-13.15c-5.992,0-10.016,3.473-11.96,10.323c-0.056,0.196-0.225,0.338-0.427,0.36l-2.535,0.273
				c-0.15,0.017-0.297-0.036-0.403-0.14c-0.107-0.104-0.161-0.251-0.148-0.4l0.827-9.741c-0.878-0.295-2.754-0.461-5.269-0.461
				c-1.328,0-2.567,0.047-3.352,0.1l-0.908,26.51c0.897,0.224,2.569,0.373,4.294,0.373c1.864,0,3.42-0.18,4.129-0.467
				c-0.016-1.725-0.115-9.479-0.115-9.479c-0.003-0.272,0.212-0.498,0.484-0.506l2.457-0.078
				C320.329,506.369,320.334,506.369,320.339,506.369z M333.171,511.972c-4.073,0-4.634-4.139-4.634-8.612
				c0-5.717,1.542-8.496,4.712-8.496c4.008,0,4.829,3.193,4.829,7.988C338.078,507.588,337.483,511.972,333.171,511.972z
				 M333.249,495.864c-0.918,0-3.712,0-3.712,7.496c0,6.339,1.391,7.612,3.634,7.612c2.848,0,3.907-2.201,3.907-8.12
				C337.078,497.007,335.674,495.864,333.249,495.864z"/>
		</g>
		<g>
			<path fill="#2E2A4C" d="M359.066,498.445l5.382-0.117l-0.234-8.502c1.17-0.897,8.736-1.014,9.828-0.117l-1.17,27.379
				c-0.858,0.702-8.658,0.468-9.75-0.078l1.092-10.375l-5.616-0.156l-0.273,10.335c-0.624,0.78-7.917,0.741-9.166,0.391
				l1.131-27.613c0.819-0.702,8.463-0.819,9.868-0.117L359.066,498.445z"/>
			<path fill="#FFFFFF" d="M368.88,518.024c-1.948,0-5.149-0.151-5.982-0.567c-0.187-0.093-0.295-0.292-0.273-0.5l1.036-9.837
				l-4.576-0.127l-0.26,9.835c-0.003,0.108-0.042,0.214-0.109,0.299c-0.434,0.542-2.363,0.817-5.734,0.817
				c-1.402,0-3.279-0.067-3.957-0.258c-0.223-0.063-0.374-0.271-0.364-0.502l1.131-27.613c0.005-0.139,0.069-0.269,0.174-0.359
				c0.768-0.658,4.469-0.709,5.584-0.709c1.138,0,3.885,0.051,4.832,0.524c0.189,0.095,0.298,0.298,0.272,0.508l-1.022,8.398
				l4.303-0.094l-0.22-8c-0.004-0.16,0.068-0.313,0.196-0.411c1.062-0.813,5.202-0.837,5.67-0.837c1.453,0,4.005,0.095,4.779,0.731
				c0.122,0.1,0.189,0.25,0.182,0.408l-1.17,27.379c-0.006,0.143-0.073,0.275-0.183,0.365
				C373.023,517.61,372.518,518.024,368.88,518.024z M363.662,516.66c0.832,0.188,2.903,0.364,5.219,0.364
				c2.068,0,3.105-0.145,3.505-0.259l1.144-26.771c-0.493-0.188-1.765-0.402-3.949-0.402c-2.346,0-4.184,0.25-4.858,0.523l0.226,8.2
				c0.003,0.133-0.046,0.262-0.138,0.358s-0.218,0.152-0.352,0.155l-5.382,0.117c-0.164-0.016-0.284-0.057-0.381-0.165
				c-0.098-0.107-0.143-0.252-0.125-0.396l1.043-8.572c-0.658-0.167-2.044-0.31-4.063-0.31c-2.55,0-4.216,0.217-4.771,0.399
				l-1.102,26.891c0.626,0.083,1.807,0.151,3.305,0.151c2.828,0,4.377-0.228,4.851-0.404l0.266-10.074
				c0.004-0.133,0.06-0.258,0.156-0.35c0.096-0.091,0.222-0.13,0.357-0.137l5.616,0.156c0.14,0.004,0.271,0.066,0.362,0.17
				c0.092,0.105,0.136,0.243,0.121,0.382L363.662,516.66z"/>
		</g>
		<g>
			<path fill="#2E2A4C" d="M386.834,505.075l8.424-14.898c1.599-0.585,7.645-0.585,9.204,0.039l-0.078,26.326
				c-1.833,0.663-7.995,0.819-9.828,0.39l1.872-13.923l-9.672,14.353c-1.755,0.312-8.503,0-9.556-1.287l0.663-25.819
				c1.794-0.351,9.165-0.312,10.882,0.195L386.834,505.075z"/>
			<path fill="#FFFFFF" d="M384.836,517.974c-0.067,0-6.743-0.019-8.023-1.583c-0.076-0.093-0.116-0.21-0.113-0.329l0.663-25.819
				c0.006-0.234,0.174-0.433,0.404-0.478c0.767-0.15,2.498-0.24,4.63-0.24c2.297,0,5.375,0.117,6.489,0.446
				c0.235,0.069,0.386,0.3,0.354,0.544l-1.579,12.08l7.16-12.664c0.059-0.104,0.152-0.183,0.264-0.224
				c1.178-0.431,3.893-0.464,4.696-0.464c0.843,0,3.686,0.037,4.865,0.509c0.19,0.076,0.315,0.261,0.314,0.466l-0.078,26.327
				c-0.001,0.21-0.133,0.396-0.33,0.468c-1.26,0.456-4.198,0.66-6.552,0.66c-0.926,0-2.619-0.033-3.561-0.254
				c-0.251-0.059-0.416-0.298-0.381-0.553l1.587-11.804l-8.477,12.579c-0.076,0.112-0.194,0.189-0.328,0.213
				C386.287,517.952,385.444,517.974,384.836,517.974z M377.706,515.869c0.798,0.609,3.933,1.104,7.13,1.104
				c0.663,0,1.24-0.027,1.629-0.074l9.548-14.17c0.131-0.193,0.376-0.269,0.593-0.188c0.217,0.083,0.349,0.304,0.317,0.534
				l-1.808,13.45c0.674,0.095,1.688,0.147,2.887,0.147c2.379,0,4.738-0.205,5.883-0.501l0.076-25.589
				c-0.817-0.206-2.412-0.339-4.179-0.339c-1.827,0-3.426,0.136-4.186,0.35l-8.327,14.729c-0.118,0.208-0.369,0.305-0.594,0.228
				c-0.228-0.076-0.368-0.302-0.338-0.539l1.853-14.173c-1.077-0.19-3.286-0.313-5.793-0.313c-1.725,0-3.207,0.061-4.045,0.162
				L377.706,515.869z"/>
		</g>
		<g>
			<path fill="#2E2A4C" d="M434.102,503.047c0,9.672-5.305,14.743-13.612,14.743c-7.526,0-13.065-3.354-13.065-14.158
				c0-9.009,5.422-14.665,13.417-14.665C428.797,488.968,434.102,493.063,434.102,503.047z M420.646,511.354
				c3.003,0,3.705-2.496,3.705-8.658c0-5.07-0.546-7.449-3.393-7.449c-2.848,0-3.822,2.535-3.822,8.541
				C417.136,508.819,417.604,511.354,420.646,511.354z"/>
			<path fill="#FFFFFF" d="M420.489,518.29c-9.128,0-13.565-4.795-13.565-14.658c0-9.212,5.463-15.165,13.917-15.165
				c9.002,0,13.761,5.042,13.761,14.58C434.602,512.592,429.326,518.29,420.489,518.29z M420.841,489.468
				c-7.847,0-12.917,5.56-12.917,14.165c0,9.19,4.11,13.658,12.565,13.658c8.333,0,13.112-5.191,13.112-14.243
				C433.602,494.037,429.309,489.468,420.841,489.468z M420.646,511.854c-3.715,0-4.01-3.496-4.01-8.066
				c0-5.427,0.735-9.041,4.322-9.041c3.6,0,3.893,3.6,3.893,7.949C424.851,508.771,424.2,511.854,420.646,511.854z M420.958,495.747
				c-2.051,0-3.322,1.345-3.322,8.041c0,5.481,0.675,7.066,3.01,7.066c2.456,0,3.205-1.906,3.205-8.158
				C423.851,497.371,423.175,495.747,420.958,495.747z"/>
		</g>
		<g>
			<path fill="#2E2A4C" d="M437.571,490.138c2.77-0.741,7.449-1.053,10.452-1.053c8.814,0,13.144,2.925,13.144,9.672
				c0,6.163-4.758,9.517-10.608,9.517c-1.794,0-3.51-0.234-4.524-0.741l0.078,9.399c-1.131,1.209-8.151,1.092-9.438,0.195
				L437.571,490.138z M445.996,501.721c0.507,0.117,1.248,0.312,2.184,0.312c1.989,0,3.627-1.014,3.627-3.666
				c0-2.106-1.209-3.198-3.276-3.198c-0.975,0-1.638,0.117-2.573,0.273L445.996,501.721z"/>
			<path fill="#FFFFFF" d="M441.337,518.319c-1.765,0-4.12-0.205-4.948-0.782c-0.139-0.097-0.219-0.258-0.214-0.427l0.896-26.989
				c0.008-0.22,0.158-0.41,0.371-0.466c2.746-0.735,7.41-1.07,10.581-1.07c9.309,0,13.644,3.232,13.644,10.172
				c0,5.991-4.464,10.017-11.108,10.017c-0.988,0-2.683-0.072-4.019-0.501l0.072,8.656c0.001,0.128-0.047,0.252-0.135,0.346
				C445.595,518.217,442.589,518.319,441.337,518.319z M437.185,516.83c0.639,0.254,2.166,0.489,4.152,0.489
				c2.207,0,3.744-0.299,4.273-0.623l-0.076-9.16c-0.001-0.174,0.088-0.336,0.235-0.429s0.333-0.101,0.488-0.023
				c0.875,0.438,2.442,0.688,4.301,0.688c6.141,0,10.108-3.539,10.108-9.017c0-6.343-3.899-9.172-12.644-9.172
				c-2.973,0-7.27,0.296-9.965,0.945L437.185,516.83z M448.18,502.533c-0.913,0-1.636-0.17-2.162-0.293l-0.134-0.031
				c-0.226-0.052-0.387-0.252-0.388-0.484l-0.039-6.279c-0.002-0.246,0.176-0.456,0.418-0.496l0.108-0.018
				c0.876-0.146,1.569-0.262,2.547-0.262c2.4,0,3.776,1.348,3.776,3.698C452.307,500.976,450.764,502.533,448.18,502.533z
				 M446.493,501.324c0.449,0.101,1.019,0.209,1.687,0.209c1.427,0,3.127-0.549,3.127-3.166c0-1.791-0.935-2.698-2.776-2.698
				c-0.784,0-1.359,0.08-2.07,0.196L446.493,501.324z"/>
		</g>
	</g>
</g>
</svg>
