<?xml version="1.0" encoding="UTF-8" standalone="no"?>
<!-- Generator: Adobe Illustrator 16.0.0, SVG Export Plug-In . SVG Version: 6.00 Build 0)  -->

<svg
   xmlns:dc="http://purl.org/dc/elements/1.1/"
   xmlns:cc="http://creativecommons.org/ns#"
   xmlns:rdf="http://www.w3.org/1999/02/22-rdf-syntax-ns#"
   xmlns:svg="http://www.w3.org/2000/svg"
   xmlns="http://www.w3.org/2000/svg"
   xmlns:sodipodi="http://sodipodi.sourceforge.net/DTD/sodipodi-0.dtd"
   xmlns:inkscape="http://www.inkscape.org/namespaces/inkscape"
   version="1.1"
   id="Layer_2"
   x="0px"
   y="0px"
   width="1920px"
   height="1075.447px"
   viewBox="0 0 1920 1075.447"
   enable-background="new 0 0 1920 1075.447"
   xml:space="preserve"
   inkscape:version="0.91 r13725"
   sodipodi:docname="nashi_zad_bg.svg"><metadata
     id="metadata32"><rdf:RDF><cc:Work
         rdf:about=""><dc:format>image/svg+xml</dc:format><dc:type
           rdf:resource="http://purl.org/dc/dcmitype/StillImage" /></cc:Work></rdf:RDF></metadata><defs
     id="defs30" /><sodipodi:namedview
     pagecolor="#ffffff"
     bordercolor="#666666"
     borderopacity="1"
     objecttolerance="10"
     gridtolerance="10"
     guidetolerance="10"
     inkscape:pageopacity="0"
     inkscape:pageshadow="2"
     inkscape:window-width="1770"
     inkscape:window-height="906"
     id="namedview28"
     showgrid="false"
     inkscape:zoom="0.41247896"
     inkscape:cx="949.74317"
     inkscape:cy="894.42391"
     inkscape:window-x="0"
     inkscape:window-y="0"
     inkscape:window-maximized="0"
     inkscape:current-layer="Layer_2" /><linearGradient
     id="SVGID_1_"
     gradientUnits="userSpaceOnUse"
     x1="0"
     y1="568.7695"
     x2="1920"
     y2="568.7695"><stop
       offset="0"
       style="stop-color:#669900"
       id="stop6" /><stop
       offset="1"
       style="stop-color:#336600"
       id="stop8" /></linearGradient><path
     fill="url(#SVGID_1_)"
     d="M664,248.432c-225.824,0-447.576-17.426-664-50.974V778.25c173.788-32.059,352.937-48.818,536-48.818  c500.451,0,971.656,125.211,1384,346.015V62.092C1522.682,183.25,1100.953,248.432,664,248.432z"
     id="path10" /><linearGradient
     id="SVGID_2_"
     gradientUnits="userSpaceOnUse"
     x1="0"
     y1="432.7524"
     x2="1920"
     y2="432.7524"><stop
       offset="0"
       style="stop-color:#669900"
       id="stop13" /><stop
       offset="1"
       style="stop-color:#99C04D"
       id="stop15" /></linearGradient><path
     fill="url(#SVGID_2_)"
     d="M512,300.432c-173.987,0-344.953-12.933-512-37.86v484.016c218.307-30.422,441.315-46.156,668-46.156  c433.145,0,852.874,57.43,1252,165.073V0C1490.233,193.035,1013.66,300.432,512,300.432z"
     id="path17" /><linearGradient
     id="SVGID_3_"
     gradientUnits="userSpaceOnUse"
     x1="0"
     y1="587.1299"
     x2="1920"
     y2="587.1299"><stop
       offset="0"
       style="stop-color:#98BF4D"
       id="stop20" /><stop
       offset="1"
       style="stop-color:#BFD556"
       id="stop22" /></linearGradient><path
     fill="url(#SVGID_3_)"
     d="M0,573.084v201.62c208.356-40.854,423.676-62.272,644-62.272c452.047,0,883.043,90.13,1276,253.397  V223.417c-109.342-9.908-220.077-14.985-332-14.985C1018.55,208.432,479.716,339.493,0,573.084z"
     id="path24" /><path
     opacity="0.44"
     fill="#FFFFFF"
     d="M1920,866.203c-308.859-119.959-644.743-185.771-996-185.771  c-152.193,0-301.496,12.366-446.97,36.126c55.313-2.733,110.979-4.126,166.97-4.126c452.049,0,883.044,90.131,1276,253.4V866.203z"
     id="path26" /></svg>