<?xml version="1.0" encoding="UTF-8" standalone="no"?>
<!-- Generator: Adobe Illustrator 16.0.0, SVG Export Plug-In . SVG Version: 6.00 Build 0)  -->

<svg
   xmlns:dc="http://purl.org/dc/elements/1.1/"
   xmlns:cc="http://creativecommons.org/ns#"
   xmlns:rdf="http://www.w3.org/1999/02/22-rdf-syntax-ns#"
   xmlns:svg="http://www.w3.org/2000/svg"
   xmlns="http://www.w3.org/2000/svg"
   xmlns:sodipodi="http://sodipodi.sourceforge.net/DTD/sodipodi-0.dtd"
   xmlns:inkscape="http://www.inkscape.org/namespaces/inkscape"
   version="1.1"
   id="Layer_2"
   x="0px"
   y="0px"
   width="464.28302"
   height="454.00101"
   viewBox="0 0 464.28302 454.00101"
   enable-background="new 0 0 768 1024"
   xml:space="preserve"
   inkscape:version="0.91 r13725"
   sodipodi:docname="ic_sixspot.svg"><metadata
     id="metadata55"><rdf:RDF><cc:Work
         rdf:about=""><dc:format>image/svg+xml</dc:format><dc:type
           rdf:resource="http://purl.org/dc/dcmitype/StillImage" /><dc:title></dc:title></cc:Work></rdf:RDF></metadata><defs
     id="defs53" /><sodipodi:namedview
     pagecolor="#ffffff"
     bordercolor="#666666"
     borderopacity="1"
     objecttolerance="10"
     gridtolerance="10"
     guidetolerance="10"
     inkscape:pageopacity="0"
     inkscape:pageshadow="2"
     inkscape:window-width="759"
     inkscape:window-height="480"
     id="namedview51"
     showgrid="false"
     fit-margin-top="0"
     fit-margin-left="0"
     fit-margin-right="0"
     fit-margin-bottom="0"
     inkscape:zoom="0.23046875"
     inkscape:cx="232.739"
     inkscape:cy="239.93501"
     inkscape:window-x="0"
     inkscape:window-y="0"
     inkscape:window-maximized="0"
     inkscape:current-layer="Layer_2" /><circle
     cx="158.17201"
     cy="103.334"
     r="103.334"
     id="circle3"
     style="fill:#f79c31" /><g
     id="g5"
     transform="translate(-151.261,-297.93401)"><path
       d="m 330.457,370.126 c 7.199,0 13.029,-5.834 13.029,-13.028 0,-7.196 -5.831,-13.029 -13.029,-13.029 -7.195,0 -13.028,5.833 -13.028,13.029 0,7.194 5.833,13.028 13.028,13.028 z"
       id="path7"
       inkscape:connector-curvature="0"
       style="fill:#ffffff" /><path
       d="m 349.849,399.814 -9.662,-1.308 -11.246,-24.225 c -1.043,-2.243 -3.292,-3.678 -5.764,-3.678 l -31.937,0 c -2.036,0 -3.951,0.976 -5.145,2.623 l -8.182,11.28 c -2.061,2.843 -1.43,6.815 1.414,8.876 2.842,2.06 6.819,1.429 8.874,-1.415 l 6.281,-8.655 11.869,0 -10.089,18.519 c -1.387,2.549 -1.664,5.384 -1.063,8.004 l -5.206,16.535 -20.124,0 c -3.511,0 -6.356,2.845 -6.356,6.355 0,3.511 2.845,6.355 6.356,6.355 l 24.786,0 c 2.776,0 5.229,-1.8 6.063,-4.446 l 5.013,-15.923 c 0.023,0 0.042,0.002 0.064,0.005 l 8.811,15.739 -15.019,12.819 c -2.67,2.28 -2.988,6.292 -0.708,8.961 1.255,1.472 3.041,2.229 4.834,2.229 1.462,0 2.929,-0.5 4.125,-1.521 l 18.986,-16.209 c 2.307,-1.968 2.9,-5.292 1.42,-7.935 l -11.556,-20.646 8.543,-15.677 4.891,10.536 c 0.913,1.966 2.762,3.332 4.909,3.623 l 13.108,1.774 c 0.291,0.04 0.579,0.057 0.862,0.057 3.131,0 5.859,-2.313 6.291,-5.501 0.474,-3.478 -1.965,-6.677 -5.443,-7.151 z"
       id="path9"
       inkscape:connector-curvature="0"
       style="fill:#ffffff" /></g><circle
     cx="307.177"
     cy="103.334"
     r="103.334"
     id="circle11"
     style="fill:#e31e25" /><g
     id="g13"
     transform="translate(-151.261,-297.93401)"><path
       d="m 459.441,423.195 c -7.196,0 -13.026,5.833 -13.026,13.028 0,7.195 5.83,13.029 13.026,13.029 7.198,0 13.03,-5.834 13.03,-13.029 10e-4,-7.195 -5.831,-13.028 -13.03,-13.028 z"
       id="path15"
       inkscape:connector-curvature="0"
       style="fill:#ffffff" /><path
       d="m 512.935,453.701 -19.74,0 c 2.479,-1.836 3.33,-5.24 1.844,-8.053 l -24.154,-45.706 0,-19.487 c 0,-0.277 -0.063,-0.534 -0.084,-0.805 l 32.896,-24.44 c 2.818,-2.094 3.404,-6.076 1.311,-8.893 -2.098,-2.818 -6.074,-3.404 -8.891,-1.311 l -32.18,23.91 -47.939,-2.277 c -3.481,-0.157 -6.482,2.539 -6.648,6.045 -0.165,3.507 2.539,6.484 6.047,6.65 l 32.608,1.546 0,18.905 -24.563,45.83 c -1.507,2.815 -0.658,6.241 1.835,8.085 l -21.334,0 c -1.407,0 -2.542,1.136 -2.542,2.542 0,1.405 1.135,2.542 2.542,2.542 l 108.993,0 c 1.406,0 2.542,-1.137 2.542,-2.542 -10e-4,-1.405 -1.137,-2.541 -2.543,-2.541 z m -78.291,-2.083 19.134,-35.7 c 1.675,0.962 3.594,1.557 5.664,1.557 2.024,0 3.896,-0.569 5.545,-1.489 l 18.815,35.6 c 0.466,0.881 1.14,1.565 1.895,2.115 l -52.87,0 c 0.728,-0.54 1.361,-1.231 1.817,-2.083 z"
       id="path17"
       inkscape:connector-curvature="0"
       style="fill:#ffffff" /></g><circle
     cx="360.94904"
     cy="260.47998"
     r="103.334"
     id="circle19"
     style="fill:#855297" /><g
     id="g21"
     transform="translate(-151.261,-297.93401)"><circle
       cx="460.19901"
       cy="512.974"
       r="13.029"
       id="circle23"
       style="fill:#ffffff" /><path
       d="m 560.299,532.04 c 7.197,0 13.028,-5.833 13.028,-13.027 0,-7.197 -5.831,-13.03 -13.028,-13.03 -7.199,0 -13.031,5.833 -13.031,13.03 0,7.194 5.832,13.027 13.031,13.027 z"
       id="path25"
       inkscape:connector-curvature="0"
       style="fill:#ffffff" /><path
       d="m 520.472,539.456 c 2.258,-2.692 1.896,-6.701 -0.794,-8.951 -2.688,-2.254 -6.699,-1.9 -8.952,0.794 l -16.059,19.187 -7.763,-13.063 15.418,-0.944 c 2.303,-0.141 4.35,-1.521 5.346,-3.604 l 6.99,-14.618 c 1.516,-3.165 0.177,-6.962 -2.987,-8.476 -3.174,-1.515 -6.964,-0.174 -8.477,2.994 l -5.381,11.243 -23.476,1.438 c -1.16,-0.115 -2.331,-0.033 -3.495,0.213 l -0.437,0.028 c -1.813,0.112 -3.462,1.014 -4.581,2.428 -1.475,1.256 -2.544,2.828 -3.214,4.56 l -10.704,15.435 c -1.3,1.876 -1.496,4.303 -0.513,6.358 l 6.673,13.985 c 1.091,2.282 3.367,3.62 5.741,3.62 0.915,0 1.848,-0.203 2.733,-0.624 3.166,-1.514 4.508,-5.307 2.997,-8.475 l -5.087,-10.651 2.53,-3.646 12.091,20.339 c 0.209,0.353 0.446,0.679 0.687,0.999 -0.003,0.032 -0.014,0.067 -0.017,0.103 l -3.047,37.021 c -0.289,3.498 2.312,6.564 5.811,6.854 0.175,0.015 0.352,0.022 0.528,0.022 3.274,0 6.053,-2.513 6.325,-5.834 l 2.807,-34.058 c 0.885,-0.265 1.757,-0.624 2.582,-1.119 3.486,-2.069 5.447,-5.703 5.569,-9.475 l 20.156,-24.083 z"
       id="path27"
       inkscape:connector-curvature="0"
       style="fill:#ffffff" /><path
       d="M 571.146,585.429 552.34,584.67 549.204,571.477 560.6,550.538 c 2.77,-5.081 1.246,-11.301 -3.287,-14.637 -0.704,-0.631 -1.539,-1.106 -2.471,-1.372 -1.044,-0.43 -2.107,-0.74 -3.19,-0.848 l -13.932,-3.589 -6.226,-19.09 c -1.092,-3.337 -4.671,-5.163 -8.016,-4.07 -3.335,1.088 -5.157,4.676 -4.07,8.012 l 7.307,22.405 c 0.676,2.066 2.354,3.638 4.456,4.182 l 7.267,1.875 -2.941,5.396 -16.657,-0.996 c -3.53,-0.235 -6.514,2.463 -6.723,5.968 -0.21,3.5 2.459,6.513 5.962,6.723 l 10.706,0.641 -1.939,3.565 c -1.628,2.988 -1.743,6.364 -0.677,9.329 l -10.831,16.857 c -1.7,2.643 -1.209,6.128 1.15,8.205 l 18.431,16.206 c 1.208,1.062 2.703,1.584 4.194,1.584 1.763,0 3.517,-0.729 4.774,-2.159 2.318,-2.635 2.059,-6.651 -0.577,-8.966 l -14.323,-12.599 7.438,-11.575 c 0.151,0.008 0.304,0.029 0.455,0.029 0.55,0 1.095,-0.047 1.638,-0.126 l 2.569,10.808 c 0.66,2.772 3.079,4.77 5.928,4.881 l 23.622,0.954 c 3.469,0.099 6.464,-2.585 6.605,-6.095 0.142,-3.504 -2.586,-6.464 -6.096,-6.607 z"
       id="path29"
       inkscape:connector-curvature="0"
       style="fill:#ffffff" /></g><circle
     cx="233.19801"
     cy="350.66699"
     r="103.334"
     id="circle31"
     style="fill:#5eb4d7" /><g
     id="g33"
     transform="translate(-151.261,-297.93401)"><path
       d="m 419.308,650.507 c 7.195,0 13.028,-5.835 13.028,-13.028 0,-7.195 -5.833,-13.027 -13.028,-13.027 -7.199,0 -13.03,5.832 -13.03,13.027 -0.001,7.193 5.83,13.028 13.03,13.028 z"
       id="path35"
       inkscape:connector-curvature="0"
       style="fill:#ffffff" /><path
       d="m 361.656,647.501 9.649,-6.556 5.82,2.226 -18.223,10.854 c -2.204,1.313 -3.768,3.267 -4.679,5.467 7.603,-0.027 17.917,0.743 27.854,1.489 l 0.972,0.076 c 6.535,0.49 12.793,0.96 18.106,1.195 l 4.455,-6.246 c 1.383,-1.94 1.564,-4.493 0.467,-6.61 l -2.41,-4.655 c -0.261,-1.135 -0.643,-2.254 -1.271,-3.31 -1.896,-3.176 -5.1,-5.063 -8.512,-5.461 l -21.137,-8.081 c -1.938,-0.742 -4.121,-0.488 -5.841,0.679 l -12.394,8.419 c -2.903,1.974 -3.658,5.928 -1.686,8.831 1.976,2.902 5.924,3.661 8.83,1.683 z"
       id="path37"
       inkscape:connector-curvature="0"
       style="fill:#ffffff" /><path
       d="m 438.866,665.139 c -0.225,0.021 -22.837,2.25 -30.289,2.35 -6.632,0.104 -16.346,-0.645 -26.612,-1.416 -11.166,-0.842 -22.7,-1.716 -30.329,-1.453 -5.643,0.186 -21.596,2.968 -22.271,3.086 -1.385,0.243 -2.31,1.559 -2.065,2.941 0.213,1.236 1.286,2.104 2.5,2.104 0.146,0 0.293,-0.012 0.439,-0.037 0.163,-0.029 16.276,-2.841 21.565,-3.017 7.346,-0.229 18.747,0.62 29.78,1.448 10.38,0.78 20.174,1.5 27.06,1.427 7.671,-0.102 29.782,-2.283 30.723,-2.377 1.396,-0.137 2.415,-1.382 2.278,-2.78 -0.141,-1.394 -1.369,-2.4 -2.779,-2.276 z"
       id="path39"
       inkscape:connector-curvature="0"
       style="fill:#ffffff" /></g><circle
     cx="103.334"
     cy="260.47998"
     r="103.334"
     id="circle41"
     style="fill:#a9d657" /><g
     id="g43"
     transform="translate(-151.261,-297.93401)"><circle
       cx="274.40201"
       cy="511.06601"
       r="13.028"
       id="circle45"
       style="fill:#ffffff" /><path
       d="m 260.633,566.128 8.544,-15.679 4.89,10.537 c 0.913,1.966 2.766,3.33 4.911,3.62 l 13.107,1.774 c 0.291,0.04 0.578,0.058 0.862,0.058 3.13,0 5.859,-2.313 6.291,-5.503 0.469,-3.479 -1.97,-6.681 -5.445,-7.151 l -9.662,-1.308 -11.246,-24.226 c -1.042,-2.244 -3.291,-3.68 -5.765,-3.68 l -31.936,0 c -2.036,0 -3.947,0.977 -5.144,2.624 l -8.183,11.281 c -2.061,2.844 -1.431,6.816 1.412,8.878 2.841,2.055 6.815,1.428 8.876,-1.413 l 6.281,-8.659 11.866,0 -10.09,18.521 c -1.386,2.548 -1.661,5.383 -1.063,8.007 l -5.203,16.529 -20.122,0 c -3.513,0 -6.358,2.849 -6.358,6.357 0,3.51 2.846,6.355 6.358,6.355 l 24.784,0 c 2.775,0 5.229,-1.8 6.063,-4.446 l 5.012,-15.923 c 0.022,0 0.043,10e-4 0.063,0.004 l 8.813,15.738 -15.02,12.819 c -2.672,2.28 -2.986,6.294 -0.707,8.962 1.258,1.474 3.041,2.228 4.835,2.228 1.46,0 2.927,-0.496 4.124,-1.521 l 18.987,-16.206 c 2.306,-1.969 2.898,-5.292 1.419,-7.937 l -11.554,-20.64 z"
       id="path47"
       inkscape:connector-curvature="0"
       style="fill:#ffffff" /><path
       d="m 287.431,590.19 c -7.886,0 -14.3,6.417 -14.3,14.3 0,7.887 6.414,14.301 14.3,14.301 7.885,0 14.3,-6.414 14.3,-14.301 -10e-4,-7.883 -6.416,-14.3 -14.3,-14.3 z m 0,23.518 c -5.083,0 -9.216,-4.136 -9.216,-9.218 0,-5.081 4.133,-9.216 9.216,-9.216 5.081,0 9.216,4.135 9.216,9.216 -10e-4,5.082 -4.135,9.218 -9.216,9.218 z"
       id="path49"
       inkscape:connector-curvature="0"
       style="fill:#ffffff" /></g></svg>