<?xml version="1.0" encoding="UTF-8" standalone="no"?>
<!-- Generator: Adobe Illustrator 16.0.0, SVG Export Plug-In . SVG Version: 6.00 Build 0)  -->

<svg
   xmlns:dc="http://purl.org/dc/elements/1.1/"
   xmlns:cc="http://creativecommons.org/ns#"
   xmlns:rdf="http://www.w3.org/1999/02/22-rdf-syntax-ns#"
   xmlns:svg="http://www.w3.org/2000/svg"
   xmlns="http://www.w3.org/2000/svg"
   xmlns:sodipodi="http://sodipodi.sourceforge.net/DTD/sodipodi-0.dtd"
   xmlns:inkscape="http://www.inkscape.org/namespaces/inkscape"
   version="1.1"
   x="0px"
   y="0px"
   width="369.34494"
   height="316.84302"
   viewBox="0 0 369.34494 316.84302"
   enable-background="new 0 0 768 576"
   xml:space="preserve"
   id="svg2"
   inkscape:version="0.91 r13725"
   sodipodi:docname="ic_unicproj.svg"><metadata
     id="metadata31"><rdf:RDF><cc:Work
         rdf:about=""><dc:format>image/svg+xml</dc:format><dc:type
           rdf:resource="http://purl.org/dc/dcmitype/StillImage" /><dc:title></dc:title></cc:Work></rdf:RDF></metadata><defs
     id="defs29" /><sodipodi:namedview
     pagecolor="#ffffff"
     bordercolor="#666666"
     borderopacity="1"
     objecttolerance="10"
     gridtolerance="10"
     guidetolerance="10"
     inkscape:pageopacity="0"
     inkscape:pageshadow="2"
     inkscape:window-width="759"
     inkscape:window-height="480"
     id="namedview27"
     showgrid="false"
     fit-margin-top="0"
     fit-margin-left="0"
     fit-margin-right="0"
     fit-margin-bottom="0"
     inkscape:zoom="0.36458333"
     inkscape:cx="228.53805"
     inkscape:cy="155.38007"
     inkscape:window-x="0"
     inkscape:window-y="0"
     inkscape:window-maximized="0"
     inkscape:current-layer="svg2" /><g
     id="Layer_4"
     transform="translate(-155.46195,-126.53705)"><path
       stroke-miterlimit="10"
       d="m 285.199,300.949 c 0.788,0.063 1.704,4.099 1.704,4.703 -1.787,0 -5.302,-0.017 -6.032,1.688 -0.344,0.805 -0.748,1.209 -0.597,2.446 -0.04,0.106 -0.072,0.197 -0.096,0.27 0.035,0.114 0.09,0.226 0.179,0.33 2.518,2.93 0.417,3.648 -0.487,6.311 -0.704,2.073 -1.885,1.828 -1.998,2.486 0.715,-0.123 2.094,2.028 2.577,2.608 2.198,2.647 3.142,0.04 3.718,1.769 2.592,0.791 2.422,3.057 2.331,5.287 -0.712,0.492 -1.509,0.876 -2.218,1.039 -0.553,2.329 0.409,2.332 -2.653,2.739 -0.112,0.147 -0.061,2.421 0,2.625 2.646,4.135 0.961,3.795 -0.371,5.206 0.722,0.291 3.982,0.307 4.572,-0.836 2.814,-5.445 4.22,-0.63 4.779,-0.547 2.246,0.332 4.958,2.542 5.078,5.328 0.004,0.097 0.988,1.481 1.345,-0.062 1.963,-0.68 5.016,4.859 5.625,1.313 0.804,-0.416 -0.023,-1.992 1.639,-1.423 0.595,0.203 1.273,1.184 1.345,1.766 0.433,3.524 3.004,6.422 -0.171,7.328 2.185,4.447 1.218,10.055 4.827,12.686 0.506,0.369 0.928,0.974 2.059,1.396 1.825,-0.452 1.711,-0.321 2.864,-0.662 2.597,-5.446 -1.743,-1.537 3.97,-5.563 1.925,-1.356 -1.211,-2.134 3.171,-1.811 3.907,0.289 4.405,-1.137 6.297,2.516 0.872,1.052 -0.227,2.01 2.772,2.734 1.208,0.706 2.287,-0.615 3.868,0.75 l 0.391,0.172 c 1.555,0.682 4.077,2.414 4.484,-0.53 l 0.188,-0.407 c 0.02,-0.023 0.749,-5.347 5.218,-3.814 4.649,1.594 3.118,4.008 10.719,1.05 3.354,-1.305 -0.559,-6.35 4.827,-9.83 0.876,-0.566 -0.465,-2.384 -1.496,-3.634 -0.877,-0.586 -0.848,-0.566 -0.73,-0.022 -0.723,-0.379 -0.058,-0.727 -0.522,-0.967 -4.562,-2.362 -2.046,-1.386 -1.688,-4.5 0.608,-0.097 1.345,-0.387 1.591,-1.034 0.304,-0.093 0.256,-0.073 0.487,-0.295 -0.463,-2.93 -4.358,-3.955 0.514,-5.11 0.159,-0.69 -0.71,-1.289 -1.079,-2.036 -0.357,-0.723 -0.217,-2.081 -0.217,-2.807 1.009,0 0.829,0.375 2.079,0.375 2.57,0 1.354,-3.519 1.313,-3.563 -3.027,-3.239 -1.014,-6.174 -3.297,-7.125 -1.127,-0.47 -3.293,0.389 -4.398,-1.063 -0.31,-2.989 -1.974,-2.987 -2.086,-1.952 -0.103,0.953 -4.11,-0.854 -4.955,-1.265 -2.376,-1.156 -2.656,-5.445 1.612,-4.034 6.067,2.007 1.418,0.248 6.171,0.643 6.457,0.537 -2.498,-6.079 -0.139,-8.373 l 0.579,-0.563 c 0.478,-1.125 -1.381,-6.078 1.811,-6.471 3.886,-0.479 0.249,-3.048 4.296,-3.75 3.122,-0.542 2.86,-5.32 5.03,-3.515 4.739,3.942 3.771,0.181 7.047,2.882 3.638,4.276 2.863,0.279 4.133,-1.336 6.194,-0.996 3.299,-1.575 4.071,-6.078 0.79,-0.299 1.983,-0.284 2.609,0.188 2.99,2.254 2.271,0.071 3.75,0.188 0.735,-2.126 1.334,2.246 3.032,-4.28 0.9,-0.313 1.509,0.756 1.672,-1.409 0.107,-1.433 4.534,-2.209 -0.359,-3.905 -0.45,-1.3 1.478,-2.111 2.006,-2.678 -0.619,0.022 -2.082,0.269 -2.038,-0.852 0.116,-2.951 -1.351,-2.35 -1.142,-3.204 0.545,-2.218 -1.731,-6.612 0.188,-6.938 3.937,-0.667 0.193,-4.139 0.813,-5.186 1.963,-3.311 0.498,-4.02 0.107,-6.236 -0.541,-3.067 -4.998,-0.941 -1.887,-6.854 0.136,-0.417 -0.436,-1.293 0.055,-0.483 0.585,-1.317 -2.488,-1.206 -1.837,-2.507 l 0.358,-0.718 c 2.128,-0.439 2.892,-2 1.875,-3.83 -1.474,-2.653 1.979,-2.415 1.998,-2.421 0.179,-0.515 -0.311,-0.781 -0.358,-1.125 -0.535,-3.86 1.615,-1.742 -0.172,-6.905 -2.262,0 -6.172,5.912 -7.125,2.078 -1.461,-5.877 -8.625,-3.763 -8.625,-0.203 -1.678,0.144 0.614,-1.669 -5.218,-0.906 -0.02,0.059 0.508,3.293 -2.534,1.999 -3.829,-1.631 -1.1,0.055 -3.279,-0.172 -0.322,-2.042 -1.881,-3.239 -3.359,-4.328 -3.434,-2.53 -2.326,-0.718 -5.11,-0.718 -0.094,0.407 -0.53,0.208 -0.67,0.626 -1.917,0.585 -1.393,2.732 -1.393,4.436 -0.559,0 -1.647,0.04 -2.063,-0.284 -0.323,-0.252 -7.677,-8.442 -7.891,-5.528 -0.345,4.676 -2.495,0.602 -2.813,3.188 -0.32,2.604 -4.201,1.744 -4.5,0.11 -2.244,-3.966 -4.113,1.469 -6.359,0.453 -0.084,-0.492 -0.655,-0.887 -0.798,-1.093 -3.737,-5.392 1.307,-6.702 -6.389,-7.157 -1.339,-2.646 -2.629,-5.517 -4.939,-7.305 -2.781,-0.29 -4.936,-1.883 -4.937,-1.883 0,-1.068 -0.133,-0.569 -0.203,-0.921 -0.644,-3.214 -1.106,-2.688 -1.321,-3.468 -2.193,-4.218 -7.161,-0.457 -8.789,-0.656 -4.305,-0.53 -4.747,2.443 -5.764,1.639 -2.632,-2.081 -2.931,1.523 -4.438,0.399 -2.115,-3.71 -5.272,2.247 -7.374,0.897 -1.924,-1.235 -4.099,-1.677 -4.313,-1.875 -3.174,-2.941 -3.9,-0.552 -4.258,0.713 -1.084,3.826 1.47,2.41 1.756,9.104 0.103,2.397 3.986,-2.139 4.296,2.063 0.07,0.947 0.957,1.098 1.671,1.344 2.38,11.527 6.533,3.999 6.236,11.015 -0.072,1.686 -3.415,1.796 -1.548,5.454 0.368,0.721 0.072,5.096 -1.827,6.016 -3.299,1.598 -0.429,4.07 -3.766,5.454 -0.717,0.297 0.351,0.38 -1.765,1.843 -0.99,0.684 -0.024,1.199 -3.153,2.813 -3.189,1.645 -7.858,-0.876 -9.846,2.486 -1.559,2.636 -1.111,-1.388 -1.532,2.796 -0.41,4.073 1.902,-2.365 2.952,4.264 1.187,7.494 6.07,3.016 7.532,3.016 0,7.084 0.234,0.438 3.498,5.829 1.071,1.768 -0.965,2.432 -2.871,4.548 -0.921,1.022 -4.249,-1.981 -3.814,3.123 0.049,0.581 -0.395,0.451 -0.563,0.938 -0.441,0.069 -0.471,0.536 -0.343,0.905 2.054,0.71 2.076,-0.97 1.655,3.97 -0.157,1.846 2.455,-0.56 3.798,3.75 0.538,1.725 1.421,1.713 2.748,4.361 0.48,0.957 3.547,4.473 4.516,4.639 0.002,3.379 -3.402,1.702 -1.889,3.915 z"
       id="path5"
       inkscape:connector-curvature="0"
       style="fill:#98bf4d;stroke:#759127;stroke-width:6;stroke-linejoin:round;stroke-miterlimit:10" /></g><g
     id="Layer_5"
     transform="translate(-155.46195,-126.53705)"><path
       stroke-miterlimit="10"
       d="m 311.577,367.686 c -0.357,-0.703 -0.779,-1.308 -1.285,-1.677 -3.609,-2.631 -2.642,-8.238 -4.827,-12.686 3.176,-0.906 0.604,-3.804 0.171,-7.328 -0.071,-0.582 -0.75,-1.563 -1.345,-1.766 -1.662,-0.569 -0.835,1.007 -1.639,1.423 -0.609,3.547 -3.662,-1.992 -5.625,-1.313 -0.357,1.543 -1.341,0.158 -1.345,0.062 -0.12,-2.786 -2.832,-4.996 -5.078,-5.328 -0.559,-0.083 -1.964,-4.898 -4.779,0.547 -0.59,1.143 -3.85,1.127 -4.572,0.836 1.332,-1.411 3.018,-1.071 0.371,-5.206 -0.061,-0.204 -0.112,-2.478 0,-2.625 3.062,-0.407 2.101,-0.41 2.653,-2.739 0.708,-0.163 1.506,-0.547 2.218,-1.039 0.092,-2.23 0.262,-4.496 -2.331,-5.287 -0.576,-1.729 -1.52,0.879 -3.718,-1.769 -0.482,-0.58 -1.862,-2.731 -2.577,-2.608 0.113,-0.658 1.294,-0.413 1.998,-2.486 0.904,-2.662 3.005,-3.381 0.487,-6.311 -0.089,-0.104 -0.145,-0.216 -0.179,-0.33 -0.096,0.281 -0.083,0.259 -0.063,-0.317 -2.063,-0.662 -4.068,-2.95 -6.149,-2.773 -1.068,0.092 -2.965,-0.127 -3.498,-1.58 -1.582,-0.528 -2.508,-0.005 -2.909,1.735 -0.215,0.085 -4.215,-1.021 -5.17,-1.076 -0.722,-0.042 0.024,-0.464 -1.253,-0.89 -0.144,-0.432 -1.369,-0.514 -1.763,-0.423 -0.49,3.356 -5.015,-0.174 -5.625,2.608 -0.232,1.06 -1.423,0.342 -1.703,2.626 -0.191,1.554 -0.61,2.836 -2.181,3.366 -1.042,1.599 1.029,2.207 -1.677,5.82 -2.02,2.699 4.292,6.368 -2.86,10.125 -0.097,0.051 -2.442,2.328 -2.518,2.438 0.847,3.011 -3.451,1.723 -3.702,4.377 -0.153,1.616 -0.679,4.807 -2.427,3.011 l -0.589,-0.605 c 0,0.616 -0.415,2.524 -1.484,2.186 -0.473,-4.55 -5.564,2.337 -5.266,-5.218 0.053,-1.341 -3.027,0.359 -3.091,0.359 -0.122,-0.15 -0.614,-2.204 -0.691,-2.577 -1.393,-0.482 -3.824,0.485 -6.616,-1.148 -2.423,-0.195 -5.793,1.066 -5.898,3.538 -0.057,1.344 -2.875,-0.62 -1.875,4.671 0.392,2.077 -0.419,2.442 -0.782,4.72 -0.178,1.111 -0.409,0.728 -0.359,1.313 -5.626,0 -2.467,-1.552 -9.177,-1.844 -0.574,-0.024 -1.125,-0.075 -1.419,-0.578 -5.288,-0.322 -2.456,0.957 -4.42,0.75 -2.007,-0.212 -0.705,-5.522 -3.016,-1.939 -0.236,0.365 -2.981,0.55 -4.294,-0.435 1.229,5.117 -1.666,5.659 -1.877,8.2 -0.062,0.74 -1.37,0.791 -2.454,1.875 -3.601,3.601 -3.943,0.143 -7.797,2.608 -3.89,0.813 -1.001,-1.171 -5.172,2.454 -1.214,1.055 -2.183,2.026 -3.343,3.188 -5.718,5.718 -2.086,1.883 -3.595,5.689 -0.218,0.55 -1.765,0.394 -3.578,3.278 -0.331,0.525 0.061,0.942 -0.509,1.211 -1.576,1.481 -0.726,8.011 -0.271,9.117 -0.148,2.653 3.79,-2.677 6.579,0.593 1.186,0.714 0.078,1.012 3.779,2.172 0.665,0.209 1.659,1.792 1.843,2.395 4.4,1.471 3.524,-0.553 4.36,4.95 0.281,1.847 2.396,1.143 0.563,3.52 -0.322,0.417 -0.021,0.61 -0.423,0.745 -1.486,4.854 -3.201,-1.263 -3.669,7.376 -0.076,1.399 -2.248,0.843 -0.938,6.188 0.161,0.656 -1.222,0.632 -1.859,0.799 -0.766,2.216 -3.112,6.165 -2.84,9.848 0.068,0.933 1.177,1.74 1.5,2.625 0.217,0.594 -0.792,1.723 -0.375,2.25 0.625,0.792 3.886,1.689 4.875,2.25 0.588,0.334 0.942,-1.681 0.375,-3.75 -0.369,-1.347 -1.806,-2.531 -1.5,-3.75 0.337,-1.345 3.779,-1.973 4.5,-2.25 1.238,-0.476 6.818,0.278 4.875,1.5 -1.478,0.929 -0.191,1.192 1.315,1.394 1.179,0.157 1.535,1.813 2.435,1.981 2.549,0.475 5.251,-3.086 7.5,-5.25 3.057,-2.94 5.426,-2.87 7.125,-6.375 0.812,-1.674 0.746,-1.896 0.746,-4.817 0.025,-0.004 3.165,-1.61 5.143,-2.095 3.741,-0.916 4.443,-6.145 9.201,-2.438 3.47,0.804 5.134,-4.767 7.154,-0.89 1.078,2.068 8.028,-3.133 12.525,-3.203 1.146,-0.019 2.492,0.853 3.306,1.5 l -0.488,0.171 2.823,0.269 c 2.862,0.271 6.732,0.342 6.745,0.343 l -0.472,-0.032 c 5.911,0 2.471,3.827 8.143,1.939 0.117,-0.352 2.224,-2.01 3.311,-1.939 2.203,3.443 7.875,-1.306 11.609,4.216 2.874,4.25 11.049,-0.351 11.633,5.408 2.224,2.989 5.693,2.597 7.288,0.158 0.58,-0.046 5.388,-1.298 5.971,1.374 1.655,1.285 3.785,3.021 6.237,3.036 3.072,0.018 6.601,-1.887 9.75,-1.875 1.145,0.004 0.292,2.535 0.096,5.113 -0.056,0.743 2.413,-0.181 2.529,0.512 0.134,0.797 -2.044,3.192 -1.5,3.75 0.603,0.618 2.415,-0.397 4.125,-0.375 0.966,0.013 1.772,1.188 2.625,1.125 1.413,-0.104 1.471,-1.343 2.25,-1.5 0.595,-0.12 2.031,0.838 2.321,0.745 1.072,-0.345 -2.037,-3.519 -1.946,-7.495 0.04,-1.752 3.778,-2.482 3.559,-5.192 l -0.048,-0.595 c -1.159,-4.302 -4.59,-0.551 -1.313,-4.64 0.286,-0.356 -0.021,-0.442 0.579,-0.814 0.255,-1.958 1.991,-1.577 -0.171,-3.776 -0.367,-0.373 -0.255,-1.127 0.391,-1.237 0.498,-1.936 6.516,-4.184 2.469,-5.92 -1.292,-0.555 0.502,-0.055 -1.329,-0.487 -1.023,-4.426 0.493,-5.422 -1.125,-7.953 -0.562,-2.659 2.701,-4.865 -1.484,-5.499 -4.881,-0.739 -0.909,-2.304 -8.063,-3 -0.534,-0.055 -1.034,-3.161 -2.137,-5.328 z"
       id="path8"
       inkscape:connector-curvature="0"
       style="fill:#98bf4d;stroke:#759127;stroke-width:6;stroke-linejoin:round;stroke-miterlimit:10" /></g><g
     id="Layer_6"
     transform="translate(-155.46195,-126.53705)"><path
       stroke-miterlimit="10"
       d="m 286.873,171.083 c 0.134,0.011 0.027,0.202 0,0 l 0,0 z m 57.78,53.177 c 0.214,-2.914 7.568,5.276 7.891,5.528 0.415,0.324 1.503,0.284 2.063,0.284 0,-1.704 -0.525,-3.851 1.393,-4.436 0.14,-0.418 0.576,-0.22 0.67,-0.626 2.784,0 1.677,-1.813 5.11,0.718 1.478,1.089 3.037,2.286 3.359,4.328 2.179,0.227 -0.55,-1.459 3.279,0.172 3.042,1.295 2.514,-1.94 2.534,-1.999 5.832,-0.764 3.541,1.05 5.218,0.906 0,-3.56 7.164,-5.674 8.625,0.203 0.953,3.833 4.863,-2.078 7.125,-2.078 1.787,5.164 -0.363,3.045 0.172,6.905 0.048,0.344 0.537,0.61 0.358,1.125 -0.02,0.007 -3.472,-0.231 -1.998,2.421 1.017,1.83 0.253,3.391 -1.875,3.83 l -0.358,0.718 c -0.651,1.302 2.422,1.19 1.837,2.507 -0.49,-0.811 0.081,0.065 -0.055,0.483 1.205,1.434 0.927,1.199 1.301,1.694 0.342,0.151 0.397,0.136 0.776,0.097 l 0.466,-0.048 c 2.003,-1.201 4.78,0.267 4.72,-1.265 -0.19,-4.837 3.307,1.559 4.8,0.016 1.265,-1.305 7.105,-1.896 7.217,-0.391 0.261,3.548 2.838,0.226 3.921,0.359 9.362,1.153 3.651,-4.689 10.623,-3.327 0.021,0.059 -1.676,2.98 0.161,4.045 5.1,2.956 1.991,-4.574 6.605,0.268 3.465,3.636 1.809,1.732 3.423,1.028 2.928,-1.276 0.393,-2.106 1.484,-2.716 3.902,-2.179 -0.853,-4.206 3.102,-4.728 0.441,-1.095 -0.275,-3.899 4.32,-1.313 2.066,1.163 7.557,1.757 7.846,1.149 1.768,-3.72 1.652,0.171 6.327,0.094 0.903,-0.283 2.156,-1.948 2.015,-2.547 1.576,-2.104 0.484,-1.018 2.711,-1.336 l 1.308,-0.456 c -2.454,-0.559 -5.653,-2.545 -4.113,-5.896 1.088,-2.367 3.511,-4.41 3.61,-5.25 0.713,-5.998 -3.749,-2.986 -6.016,-2.014 -0.571,-0.36 -0.27,-0.946 -0.938,-1.002 -5.35,-0.446 -0.856,-2.721 -4.206,-3.873 l -0.637,-0.048 c -5.024,-0.379 -1.787,-1.374 -5.267,-1.891 -2.842,-0.422 -3.219,-2.609 -5.453,-2.609 0,-0.699 -0.249,-3.503 1.296,-2.544 1.583,-1.726 0.709,-3.604 1.04,-5.432 0.1,-0.552 0.305,-1.232 0.852,-1.21 5.616,0.221 0.14,-4.283 4.296,-4.141 0.489,-0.933 -0.625,-5.346 -0.75,-6.938 -0.587,-7.49 -2.272,-3.152 -3,-6.718 -0.504,-2.475 -4.256,-4.552 -1.125,-6.906 2.757,-2.071 -0.193,-4.681 1.377,-6.782 1.567,-2.096 1.058,-10.703 -2.421,-10.703 -2.064,0 -4.939,5.167 -4.939,-2.063 -0.703,-0.06 -0.701,1.16 -1.189,2.218 -2.354,0.513 -1.871,-2.94 -1.827,-4.64 -0.482,-0.268 -0.303,-0.29 -0.538,-0.485 -1.323,-1.096 -3.574,-3.855 -3.383,-4.968 -1.718,-0.281 -4.911,0.402 -5.079,-0.734 -0.332,-2.245 -3.93,-0.344 -4.516,-3.171 -1.222,-0.281 -3.417,0.176 -4.185,0.734 l -0.471,0.343 c -3.5,2.546 -2.76,-1.165 -6.563,-1.688 -4.053,-0.557 -4.942,-0.178 -6.702,2.454 -2.609,3.901 0.209,1.858 -5.47,3.016 -6.843,1.396 -2.017,7.849 -5.657,5.968 -0.687,-0.355 0.186,-1.639 -2.796,-3.825 -5.154,-3.779 -0.563,-1.722 -0.563,-5.689 0,-4.172 3.024,-3.946 1.688,-4.157 -0.423,-0.81 -0.846,-0.768 -1.157,-1.109 0.107,-0.682 0.33,-2.547 -0.547,-2.719 -0.428,-0.22 -2.809,-1.055 -2.983,-1.047 -1.289,0.055 -4.387,-0.79 -4.695,-3.085 -0.193,-0.128 -8.718,-0.059 -9.099,1.087 -2.864,0.876 -1.602,4.894 -2.641,5.015 -6.516,0.759 -5.116,-4.722 -5.502,-5.031 -3.346,-2.678 -1.125,-1.906 -1.125,-5.11 -1.006,0 -2.205,-0.047 -3.281,-0.008 -4.89,0.175 -2.607,-0.93 -5.579,-0.93 -0.946,0 -3.397,5.649 -5.122,2.876 -1.493,-2.399 -3.869,-2.099 -4.034,-3.439 -0.406,-3.294 -1.628,-2.097 -1.688,-1.345 -0.268,0.105 -0.313,0.131 -0.498,0.22 l -0.423,0.204 c -5.2,0.492 -2.244,2.474 -4.5,3.311 -2.503,0.928 -0.899,4.116 -3.938,3.986 -2.482,-0.106 0.418,4.869 -2.438,5.079 -4.415,0.325 -1.416,2.186 -3.085,4.015 -3.529,3.865 -0.607,3.967 -2.165,7.406 -1.739,0 -3.08,-0.188 -4.875,-0.188 -3.882,0 -5.861,2.44 -7.173,-0.22 -2.776,-5.627 -1.587,-1.436 -5.357,-1.639 -4.975,-0.269 -2.13,-0.687 -5.657,0.985 -2.472,1.173 -0.807,0.62 -1.858,1.388 -2.931,2.137 -0.134,3.714 -1.875,4.313 -2.209,0.759 -3.867,3.472 -5.469,2.454 -3.095,-1.968 -3.478,2.78 -3.14,4.923 -0.283,0.31 -0.253,0.175 -0.643,0.343 l -1.157,0.498 c -0.173,0.713 0.05,-0.293 -0.209,0.541 -0.654,2.107 -0.727,2.851 -0.695,3.081 -0.127,-0.011 -0.47,0.138 -1.298,0.926 0.183,1.522 -0.243,4.827 -0.172,5.362 1.165,8.723 -1.671,3.131 -1.671,6.67 0.484,0 6.198,2.129 6.392,-0.188 0.271,-3.256 3.992,0.968 4.843,1.142 4.701,0.957 -1.256,4.369 -2.39,4.5 -0.101,0.427 0.037,1.193 -0.032,1.733 -0.012,0.095 -1.32,0.502 -1.483,0.586 0.588,0.463 1.43,0.926 1.076,1.945 -0.439,0.152 -1.253,0.15 -1.741,0.228 -0.266,0.873 -0.216,0.293 -0.445,0.603 -1.247,1.69 -6.106,0.702 -8.094,0.702 -1.13,0 -7.925,1.98 -6.89,3.531 2.346,3.513 0.489,1.422 -0.054,3.277 -0.151,0.516 -0.201,0.277 0.149,1.338 1.439,0.418 1.289,3.127 2.306,3.765 0.067,0.042 0.073,0.154 0.125,0.257 0.171,0.001 0.055,0.019 0.757,-0.084 1.659,-1.427 0.293,-3.73 3.467,-0.789 0.213,0.198 2.388,0.64 4.313,1.875 2.102,1.349 5.259,-4.608 7.374,-0.897 1.508,1.125 1.806,-2.48 4.438,-0.399 1.017,0.804 1.459,-2.169 5.764,-1.639 1.628,0.2 6.596,-3.562 8.789,0.656 0.215,0.78 0.677,0.254 1.321,3.468 0.07,0.353 0.203,-0.146 0.203,0.921 0.001,0 2.156,1.594 4.937,1.883 2.31,1.788 3.6,4.659 4.939,7.305 7.695,0.455 2.651,1.765 6.389,7.157 0.143,0.206 0.714,0.601 0.798,1.093 2.246,1.017 4.116,-4.419 6.359,-0.453 0.299,1.634 4.18,2.495 4.5,-0.11 0.316,-2.586 2.466,1.489 2.81,-3.187 z"
       id="path11"
       inkscape:connector-curvature="0"
       style="fill:#98bf4d;stroke:#759127;stroke-width:6;stroke-linejoin:round;stroke-miterlimit:10" /></g><g
     id="Layer_7"
     transform="translate(-155.46195,-126.53705)"><path
       stroke-miterlimit="10"
       d="m 415.692,308.369 c 0.002,-0.008 0.01,-0.016 0,0 l 0,0 z m -38.516,-15.875 c -1.27,1.615 -0.495,5.612 -4.133,1.336 -3.276,-2.701 -2.308,1.061 -7.047,-2.882 -2.17,-1.806 -1.908,2.973 -5.03,3.515 -4.047,0.702 -0.41,3.271 -4.296,3.75 -3.191,0.393 -1.333,5.346 -1.811,6.471 l -0.579,0.563 c -2.359,2.294 6.596,8.91 0.139,8.373 -4.753,-0.395 -0.104,1.364 -6.171,-0.643 -4.268,-1.411 -3.989,2.878 -1.612,4.034 0.845,0.411 4.852,2.218 4.955,1.265 0.112,-1.035 1.777,-1.037 2.086,1.952 1.105,1.452 3.271,0.594 4.398,1.063 2.284,0.951 0.27,3.886 3.297,7.125 0.042,0.044 1.257,3.563 -1.313,3.563 -1.25,0 -1.069,-0.375 -2.079,-0.375 0,0.726 -0.14,2.084 0.217,2.807 0.369,0.747 1.238,1.346 1.079,2.036 -4.873,1.155 -0.977,2.181 -0.514,5.11 -0.231,0.222 -0.183,0.202 -0.487,0.295 -0.246,0.647 -0.983,0.938 -1.591,1.034 -0.358,3.114 -2.875,2.138 1.688,4.5 0.465,0.24 -0.2,0.588 0.522,0.967 -0.118,-0.544 -0.147,-0.563 1.855,0.022 3.826,0.675 4.053,4.099 6.292,1.869 0.865,-0.861 4.073,1.591 4.329,-1.125 0.05,-0.529 4.999,0.841 2.491,-2.896 2.514,-1.92 4.638,-0.54 5.368,-6.024 0.504,-3.794 3.303,-0.402 4.532,-4.018 0.875,-2.573 1.429,-6.528 5.968,-3.733 2.459,1.514 3.708,-0.376 6.016,1.093 0.969,0.616 3.386,-1.943 6.53,-1.843 3.542,0.112 0.441,-8.171 2.941,-8.937 0.731,-1.915 4.131,-2.385 1.64,-7.188 -2.337,-4.508 2.606,-6.56 6.905,-6.375 0.414,0.017 1.229,-0.635 1.765,-0.595 0.115,-0.152 0.154,-0.213 0.165,-0.234 -0.002,0.015 0.02,0.028 0.21,-0.117 3.055,0.027 1.507,-2.889 5.205,2.397 2.938,4.199 8.001,1.436 12.653,1.549 0.849,0.021 1.847,-1.052 2.041,-1.68 3.758,-0.497 0.112,-2.5 5.711,-2.087 0.484,0.036 0.498,1.219 2.577,1.532 0.223,0.403 0.258,0.655 0.235,1.109 4.277,0 2.431,-1.347 8.063,-1.125 1.467,0.058 3.417,-3.878 3.733,1.376 0.064,1.071 2.229,0.799 2.625,3.14 1.322,7.799 0.812,3.137 5.267,4.72 l 0.326,0.203 c 0.188,0.117 0.437,0.458 0.611,0.498 0.063,0.365 0.353,0.712 0.733,0.478 -0.66,-0.584 -0.624,10e-4 1.191,-0.487 1.868,0.304 2.045,0.251 1.741,0.21 0.867,-0.414 0.866,0.491 2.428,-0.669 -0.057,-0.219 -2.69,-4.515 -1.125,-4.875 0.231,-0.9 1.979,-0.915 2.764,-0.702 3.121,0.846 1.626,2.077 3.986,0.188 2.215,-1.773 5.3,1.119 6.439,2.529 l -0.536,-0.177 c 2.956,1.461 5.5,2.75 8.566,4.028 l -0.407,-0.381 c 0.435,-0.148 1.311,-0.003 1.811,-0.048 l 0.675,0.097 c 3.555,1.777 7.589,-0.821 10.64,-2.534 3.023,-1.698 -0.104,-2.984 2.104,-3.67 l 0.622,-0.192 c 5.744,-1.782 2.771,-4.276 4.944,-4.403 4.366,-0.256 2.295,-0.59 4.141,-3.097 l 0.221,-0.605 c 0.999,-0.346 5.007,1.59 4.843,-0.985 -0.218,-3.427 1.726,-3.968 0.961,-6.078 -1.284,-0.587 -0.222,-1.188 -4.133,-1.984 -2.086,-0.426 -2.116,-3.443 -5.015,-3.359 -2.348,0.067 -3.647,-3.443 -3.83,-4.671 -0.36,-2.424 -2.877,-4.015 1.329,-4.532 5.262,-0.648 -0.931,-4.564 -2.937,-3.499 -3.354,1.785 -0.071,-0.638 -4.938,-1.703 -0.842,-0.185 -2.758,-2.535 -7.109,-3.423 -5.855,-1.196 -4.347,3.325 -8.164,2.821 -1.091,-0.477 -0.949,-0.952 -1.741,-1.412 -1.892,-1.099 0.331,-2.694 1.342,-3.112 0.335,-0.386 0.098,-4.363 2.018,-6.669 1.527,-1.836 -0.191,-4.999 -0.439,-6.204 -1.449,-0.502 -4.81,-0.311 -4.982,-0.643 -1.427,-2.74 -1.205,-1.063 -1.939,-1.811 -2.426,-2.472 -1.083,-1.329 -6.171,-1.329 -0.004,-0.022 -0.731,-1.459 -0.819,-1.618 -2.374,-4.261 -1.504,-0.893 -2.556,-2.43 -2.92,-4.264 -4.772,-2.901 -5.173,-4.749 -0.153,-0.712 -1.546,-7.491 -1.749,-7.532 -1.368,-0.279 -1.439,-2.329 -1.084,-3.286 l 0.274,-0.739 -2.058,-0.294 c -2.227,0.318 -1.135,-0.768 -2.711,1.336 0.142,0.599 -1.111,2.264 -2.015,2.547 -4.675,0.078 -4.56,-3.814 -6.327,-0.094 -0.289,0.608 -5.779,0.014 -7.846,-1.149 -4.596,-2.587 -3.879,0.217 -4.32,1.313 -3.954,0.521 0.801,2.549 -3.102,4.728 -1.092,0.609 1.443,1.439 -1.484,2.716 -1.614,0.704 0.042,2.608 -3.423,-1.028 -4.614,-4.841 -1.506,2.688 -6.605,-0.268 -1.837,-1.064 -0.141,-3.986 -0.161,-4.045 -6.972,-1.363 -1.261,4.48 -10.623,3.327 -1.083,-0.133 -3.66,3.189 -3.921,-0.359 -0.111,-1.504 -5.952,-0.914 -7.217,0.391 -1.493,1.543 -4.99,-4.854 -4.8,-0.016 0.061,1.531 -2.717,0.063 -4.72,1.265 l -0.466,0.048 c -0.379,0.039 -0.435,0.054 -0.776,-0.097 -0.374,-0.495 -0.096,-0.26 -0.926,-0.569 -3.486,4.787 0.971,2.662 1.512,5.729 0.391,2.216 1.855,2.925 -0.107,6.236 -0.62,1.047 3.123,4.519 -0.813,5.186 -1.92,0.325 0.356,4.719 -0.188,6.938 -0.209,0.854 1.258,0.252 1.142,3.204 -0.044,1.121 1.419,0.874 2.038,0.852 -0.528,0.567 -2.456,1.378 -2.006,2.678 4.894,1.696 0.467,2.472 0.359,3.905 -0.163,2.166 -0.771,1.097 -1.672,1.409 -1.698,6.526 -2.297,2.154 -3.032,4.28 -1.479,-0.117 -0.76,2.066 -3.75,-0.188 -0.625,-0.472 -1.819,-0.486 -2.609,-0.188 -0.772,4.499 2.124,5.078 -4.071,6.074 z"
       id="path14"
       inkscape:connector-curvature="0"
       style="fill:#98bf4d;stroke:#759127;stroke-width:6;stroke-linejoin:round;stroke-miterlimit:10" /></g><g
     id="Layer_8"
     transform="translate(-155.46195,-126.53705)"><path
       stroke-miterlimit="10"
       d="m 322.356,359.369 c -4.382,-0.323 -1.247,0.454 -3.171,1.811 -5.713,4.026 -1.373,0.117 -3.97,5.563 -1.153,0.341 -1.04,0.21 -2.864,0.662 0.329,2.447 0.829,5.554 1.364,5.605 7.154,0.696 3.182,2.261 8.063,3 4.185,0.634 0.923,2.84 1.484,5.499 1.617,2.531 0.101,3.527 1.125,7.953 1.831,0.433 0.037,-0.067 1.329,0.487 4.047,1.736 -1.972,3.984 -2.469,5.92 -0.646,0.11 -0.758,0.864 -0.391,1.237 2.162,2.199 0.426,1.818 0.171,3.776 -0.6,0.372 -0.293,0.458 -0.579,0.814 -3.277,4.089 0.154,0.338 1.313,4.64 l 0.048,0.595 c 0.219,2.71 -3.519,3.44 -3.559,5.192 -0.091,3.977 3.018,7.15 2.661,6.747 l 1.126,-1.315 c 1.03,-1.422 7.212,-0.782 4.743,2.718 -2.701,3.829 1.582,8.762 2.373,4.875 0.859,-4.216 2.941,1.535 3.008,-5.882 0.01,-1.146 1.256,-2.094 2.226,-1.757 0.678,3.269 2.086,1.963 3.252,2.936 -0.395,3.29 6.666,0.288 7.404,-1.924 0.794,-0.303 2.527,-3.669 3.814,-3.575 -0.046,1.075 0.98,3.635 1.044,3.924 0.795,0.193 0.401,0.394 1.01,0.584 0.145,1.012 -0.448,2.098 0.742,2.445 6.202,0.078 0.513,-2.1 9.204,-1.031 0.358,0.044 2.285,-0.017 2.813,-0.017 1.039,1.256 -2.087,8.862 4.72,8.047 0.999,-1.649 -1.282,-1.67 1.484,-4.73 4.564,-5.051 7.587,-2.896 8.202,-3.862 0.016,-0.024 2.944,-6.987 4.875,-3.203 2.007,3.932 2.465,2.227 3.195,4.508 -0.016,0.662 0.335,0.792 0.759,0.978 0.943,7.198 0.101,2.064 2.158,5.577 0.508,0.866 -0.271,4.979 0.107,5.437 5.236,0 2.343,-4.144 7.313,-1.28 2.098,-0.867 -0.729,-5.405 3.437,-5.656 0.736,-1.772 7.366,-6.698 7.063,0.374 -0.041,0.947 0.494,0.341 0.579,1.077 0.219,0.097 1.061,0.59 1.108,0.799 0.944,0 1.656,0.101 1.998,-1.019 1.727,-0.658 1.168,-3.102 3.487,-0.578 1.905,2.072 1.445,-2.994 5.545,-1.623 2.258,0.755 1.641,-3.136 7.157,1.548 4.127,3.504 3.938,1.947 3.938,8.421 2.279,1.695 2.802,1.085 4.117,1.603 0.073,0.454 -0.064,1.735 0.023,2.116 2.483,0.589 0.124,-0.681 2.47,0.889 0.269,0.18 1.824,0.102 2.194,-0.029 0.782,-0.277 4.099,-5.888 3.26,-8.408 -2.63,-0.874 -0.888,-4.203 -2.317,-6.145 -2.889,-1.496 -1.203,-3.327 -2.762,-5.93 l -0.439,-0.734 c -0.161,-0.163 -0.23,-0.296 -0.351,-0.525 -1.35,-0.766 -0.452,-4.744 1.443,-4.992 1.079,-1.738 -0.477,-1.148 1.876,-3.204 0.373,-0.326 0.677,-2.815 0.83,-3.481 0.107,-0.022 2.814,-5.597 2.78,-6.032 2.961,-2.027 4.65,-0.288 7.703,-4.029 0.64,-0.783 3.016,-3.509 0.922,-4.556 -3.182,-0.851 -2.395,-4.201 0.873,-6.153 2.635,-1.573 8.375,-1.886 10.752,0.188 1.495,1.305 3.004,-0.954 3.546,-1.746 2.078,-0.163 0.778,-4.148 5.519,-2.347 0.634,2.078 4.77,-1.24 7.698,1.784 2.104,2.175 6.898,-4.575 1.8,-4.141 -2.607,0.222 0.497,-4.93 -2.829,-5.609 -1.213,-0.247 -4.858,-2.128 -4.858,-4.516 0,-2.183 0.45,-1.911 0.538,-4.026 0.084,-2.002 0.407,-3.657 0.884,-5.644 2.071,-1.115 -2.786,-0.376 2.205,-4.939 l 0.375,-0.343 c 2.35,-2.148 -2.895,-0.124 -3.049,-2.095 -0.093,-1.184 -0.062,-2.527 -1.28,-2.845 -3.221,-6.797 1.077,-0.776 1.077,-7.826 0,-3.301 -3.97,-1.294 -2.519,-3.547 1.901,-2.95 -2.585,-1.798 -4.794,-4.813 -3.302,-4.506 -0.937,-2.189 -1.998,-4.689 -0.018,-0.005 -2.431,-1.836 -2.282,-2.342 2.607,-0.339 2.682,-3.576 -0.451,-6.307 -0.067,0.011 -0.128,0.016 -0.183,0.015 0.036,0.028 0.075,0.061 0.116,0.098 -0.381,0.234 -0.671,-0.112 -0.733,-0.478 -0.175,-0.04 -0.423,-0.381 -0.611,-0.498 l -0.326,-0.203 c -4.455,-1.583 -3.944,3.079 -5.267,-4.72 -0.396,-2.341 -2.561,-2.068 -2.625,-3.14 -0.316,-5.254 -2.267,-1.318 -3.733,-1.376 -5.632,-0.222 -3.785,1.125 -8.063,1.125 0.022,-0.454 -0.013,-0.706 -0.235,-1.109 -2.079,-0.313 -2.093,-1.496 -2.577,-1.532 -5.599,-0.413 -1.953,1.59 -5.711,2.087 -0.194,0.628 -1.192,1.7 -2.041,1.68 -4.652,-0.113 -9.716,2.65 -12.653,-1.549 -3.698,-5.286 -2.15,-2.37 -5.205,-2.397 -0.19,0.146 -0.212,0.132 -0.21,0.117 -0.011,0.021 -0.05,0.082 -0.165,0.234 -0.536,-0.04 -1.351,0.611 -1.765,0.595 -4.299,-0.185 -9.242,1.867 -6.905,6.375 2.491,4.804 -0.908,5.273 -1.64,7.188 -2.5,0.766 0.601,9.049 -2.941,8.937 -3.145,-0.101 -5.562,2.459 -6.53,1.843 -2.308,-1.469 -3.557,0.421 -6.016,-1.093 -4.539,-2.795 -5.093,1.16 -5.968,3.733 -1.229,3.615 -4.028,0.224 -4.532,4.018 -0.729,5.484 -2.854,4.104 -5.368,6.024 2.508,3.736 -2.441,2.366 -2.491,2.896 -0.256,2.716 -3.464,0.264 -4.329,1.125 -2.239,2.229 -2.467,-1.194 -5.543,-1.119 -0.845,0.5 0.497,2.317 -0.379,2.884 -5.385,3.48 -1.473,8.525 -4.827,9.83 -7.602,2.958 -6.07,0.544 -10.719,-1.05 -4.469,-1.532 -5.198,3.791 -5.218,3.814 l -0.188,0.407 c -0.407,2.944 -2.929,1.212 -4.484,0.53 l -0.391,-0.172 c -1.581,-1.365 -2.66,-0.044 -3.868,-0.75 -3,-0.725 -1.901,-1.683 -2.772,-2.734 -1.893,-3.656 -2.391,-2.23 -6.299,-2.519 z"
       id="path17"
       inkscape:connector-curvature="0"
       style="fill:#98bf4d;stroke:#759127;stroke-width:6;stroke-linejoin:round;stroke-miterlimit:10" /></g><g
     id="Layer_9"
     transform="translate(-155.46195,-126.53705)"><path
       stroke-miterlimit="10"
       d="m 279.672,308.697 c 0.451,-0.148 0.854,-0.553 1.199,-1.357 0.73,-1.704 4.246,-1.688 6.032,-1.688 0,-0.604 -0.916,-4.641 -1.704,-4.703 -1.514,-2.213 1.891,-0.536 1.891,-3.922 -0.969,-0.166 -4.036,-3.682 -4.516,-4.639 -1.327,-2.647 -2.21,-2.636 -2.748,-4.361 -1.343,-4.31 -3.956,-1.904 -3.798,-3.75 0.42,-4.939 0.399,-3.259 -1.655,-3.97 -0.128,-0.37 -0.099,-0.836 0.343,-0.905 0.168,-0.486 0.612,-0.356 0.563,-0.938 -0.435,-5.104 2.893,-2.101 3.814,-3.123 1.906,-2.117 3.942,-2.781 2.871,-4.548 -3.264,-5.391 -3.498,1.256 -3.498,-5.829 -1.462,0 -6.346,4.478 -7.532,-3.016 -1.049,-6.629 -3.361,-0.191 -2.952,-4.264 0.421,-4.184 -0.027,-0.161 1.532,-2.796 1.988,-3.362 6.657,-0.841 9.846,-2.486 3.129,-1.613 2.163,-2.129 3.153,-2.813 2.116,-1.462 1.048,-1.546 1.765,-1.843 3.337,-1.383 0.467,-3.856 3.766,-5.454 1.898,-0.92 2.194,-5.295 1.827,-6.016 -1.867,-3.657 1.477,-3.768 1.548,-5.454 0.297,-7.016 -3.856,0.513 -6.236,-11.015 -0.714,-0.247 -1.602,-0.397 -1.671,-1.344 -0.31,-4.202 -4.194,0.335 -4.296,-2.063 -0.286,-6.694 -0.268,-3.803 -2.84,-9.778 l -0.786,-0.213 c -0.221,-0.106 -1.062,-1.253 -2.23,-1.867 -1.21,-0.635 -2.772,-0.7 -4.362,1.553 -5.419,1.711 -6.357,-1.604 -8.205,3.367 -0.938,2.526 -3.085,-0.071 -2.952,4.564 0.054,1.874 -2.25,0.96 -2.25,8.309 0,4.839 1.423,8.63 -2.095,11.046 -3.064,2.105 0.365,5.052 -3.163,8.065 -1.5,2.7 -0.771,5.856 2.82,5.703 0.866,-0.037 1.026,0.833 1.768,1.061 0.465,1.398 2.094,2.487 2.529,5.657 0.75,5.468 -1.441,1.045 -2.829,4.532 -0.325,0.817 -6.558,-0.028 -5.764,-4.366 0.673,-0.441 1.103,-4.566 -0.391,-4.821 -0.247,-1.565 -4.988,-0.708 -5.25,-0.782 -5.461,3.745 -2.079,-1.721 -6.986,3.986 -0.97,1.128 -6.479,6.627 -8.138,4.671 -0.129,-0.153 -7.51,0.212 -7.532,0.22 -0.38,1.097 2.218,5.934 2.218,9.718 -4.029,0 -2.81,4.188 -4.827,2.593 -0.455,-0.36 -0.669,-5.514 -4.875,-1.387 -0.022,0.021 -3.588,1.511 -4.72,2.373 -2.606,1.986 -6.257,1.507 -7.265,-1.784 -2.84,-1.08 -3.596,-2.622 -5.925,0.284 -2.956,3.688 -4.774,-3.636 -9.327,-0.204 -0.542,0.408 -0.477,0.058 -1.109,0.236 -0.863,-0.606 -0.598,-0.995 -1.313,-1.5 -0.465,1.547 -0.535,5.979 -3.531,2.202 -0.18,-0.228 -6.412,-0.278 -6.79,-0.086 -0.034,0.148 -1.415,4.346 -1.492,5.32 3.148,0.65 1.496,11.805 2.153,11.984 l 0.177,0.429 c 0.651,1.577 2.345,7.889 2.561,9.145 1.565,3.171 6.128,20.511 7.468,20.458 3.424,-0.135 0.42,8.984 2.593,11.845 0.518,0.683 -0.235,7.356 0.546,10.045 0.067,0.232 0.146,3.077 0.597,3.315 1.313,0.984 4.059,0.8 4.294,0.435 2.311,-3.583 1.009,1.728 3.016,1.939 1.964,0.207 -0.868,-1.072 4.42,-0.75 0.294,0.503 0.846,0.554 1.419,0.578 6.709,0.292 3.551,1.844 9.177,1.844 -0.05,-0.586 0.181,-0.202 0.359,-1.313 0.363,-2.277 1.174,-2.643 0.782,-4.72 -1,-5.291 1.818,-3.327 1.875,-4.671 0.104,-2.472 3.475,-3.733 5.898,-3.538 2.792,1.634 5.223,0.666 6.616,1.148 0.077,0.373 0.569,2.427 0.691,2.577 0.064,0 3.145,-1.7 3.091,-0.359 -0.298,7.555 4.793,0.668 5.266,5.218 1.069,0.339 1.483,-1.569 1.484,-2.186 l 0.589,0.605 c 1.748,1.796 2.273,-1.395 2.427,-3.011 0.251,-2.654 4.549,-1.366 3.702,-4.377 0.075,-0.109 2.421,-2.387 2.518,-2.438 7.153,-3.757 0.84,-7.426 2.86,-10.125 2.706,-3.613 0.634,-4.222 1.677,-5.82 1.571,-0.53 1.99,-1.813 2.181,-3.366 0.28,-2.284 1.471,-1.566 1.703,-2.626 0.61,-2.782 5.135,0.748 5.625,-2.608 0.394,-0.091 1.619,-0.009 1.763,0.423 1.278,0.426 0.531,0.848 1.253,0.89 0.955,0.056 4.955,1.161 5.17,1.076 0.401,-1.74 1.328,-2.264 2.909,-1.735 0.533,1.453 2.43,1.672 3.498,1.58 2.138,-0.18 4.192,2.232 5.71,1.734 z"
       id="path20"
       inkscape:connector-curvature="0"
       style="fill:#98bf4d;stroke:#759127;stroke-width:6;stroke-linejoin:round;stroke-miterlimit:10" /></g><g
     id="Layer_10"
     transform="translate(-155.46195,-126.53705)"><polyline
       stroke-miterlimit="10"
       points="   304.351,261.357 346.5,228.643 346.5,344.988  "
       id="polyline23"
       style="fill:none;stroke:#ffffff;stroke-width:26;stroke-linecap:round;stroke-linejoin:round;stroke-miterlimit:10" /><line
       stroke-miterlimit="10"
       x1="305.465"
       y1="349.98801"
       x2="387.78601"
       y2="349.98801"
       id="line25"
       style="fill:none;stroke:#ffffff;stroke-width:26;stroke-linecap:round;stroke-linejoin:round;stroke-miterlimit:10" /></g></svg>