<?xml version="1.0" encoding="UTF-8" standalone="no"?>
<!-- Generator: Adobe Illustrator 16.0.0, SVG Export Plug-In . SVG Version: 6.00 Build 0)  -->

<svg
   xmlns:dc="http://purl.org/dc/elements/1.1/"
   xmlns:cc="http://creativecommons.org/ns#"
   xmlns:rdf="http://www.w3.org/1999/02/22-rdf-syntax-ns#"
   xmlns:svg="http://www.w3.org/2000/svg"
   xmlns="http://www.w3.org/2000/svg"
   xmlns:sodipodi="http://sodipodi.sourceforge.net/DTD/sodipodi-0.dtd"
   xmlns:inkscape="http://www.inkscape.org/namespaces/inkscape"
   version="1.1"
   id="Layer_1"
   x="0px"
   y="0px"
   width="70"
   height="91"
   viewBox="0 0 70 91"
   enable-background="new 0 0 110 110"
   xml:space="preserve"
   inkscape:version="0.91 r13725"
   sodipodi:docname="ic_vipusknic_vay.svg"><metadata
     id="metadata27"><rdf:RDF><cc:Work
         rdf:about=""><dc:format>image/svg+xml</dc:format><dc:type
           rdf:resource="http://purl.org/dc/dcmitype/StillImage" /><dc:title></dc:title></cc:Work></rdf:RDF></metadata><defs
     id="defs25" /><sodipodi:namedview
     pagecolor="#ffffff"
     bordercolor="#666666"
     borderopacity="1"
     objecttolerance="10"
     gridtolerance="10"
     guidetolerance="10"
     inkscape:pageopacity="0"
     inkscape:pageshadow="2"
     inkscape:window-width="759"
     inkscape:window-height="480"
     id="namedview23"
     showgrid="false"
     fit-margin-top="0"
     fit-margin-left="0"
     fit-margin-right="0"
     fit-margin-bottom="0"
     inkscape:zoom="2.1454545"
     inkscape:cx="35.5"
     inkscape:cy="49.5"
     inkscape:window-x="0"
     inkscape:window-y="0"
     inkscape:window-maximized="0"
     inkscape:current-layer="Layer_1" /><path
     stroke-miterlimit="10"
     d="M 69,3.5 C 69,2.119 67.881,1 66.5,1 L 3.5,1 C 2.119,1 1,2.119 1,3.5 l 0,84 C 1,88.881 2.119,90 3.5,90 l 63,0 c 1.381,0 2.5,-1.119 2.5,-2.5 l 0,-84 z"
     id="path3"
     inkscape:connector-curvature="0"
     style="fill:#855296;stroke:#401154;stroke-width:2;stroke-miterlimit:10" /><g
     id="g5"
     transform="translate(-19.5,-13.5)"><line
       stroke-miterlimit="10"
       x1="71"
       y1="86.5"
       x2="71"
       y2="36.5"
       id="line7"
       style="fill:none;stroke:#401154;stroke-width:7;stroke-linecap:round;stroke-linejoin:round;stroke-miterlimit:10" /><polyline
       stroke-miterlimit="10"
       points="   82,51.5 71.5,33.5 61,51.5  "
       id="polyline9"
       style="fill:none;stroke:#401154;stroke-width:7;stroke-linecap:round;stroke-linejoin:round;stroke-miterlimit:10" /></g><g
     id="g11"
     transform="translate(-19.5,-13.5)"><g
       id="g13"><path
         d="m 41.887,30.958 c -0.513,0 -1.007,-0.081 -1.393,-0.229 l -5.171,-1.989 0,3.967 c 0,0.623 0.499,1.235 1.11,1.359 l 4.385,0.902 c 0.611,0.126 1.607,0.125 2.218,-0.001 l 4.311,-0.897 c 0.61,-0.126 1.108,-0.74 1.108,-1.363 l 0,-3.974 -5.169,1.994 c -0.389,0.149 -0.884,0.231 -1.399,0.231 z"
         id="path15"
         inkscape:connector-curvature="0"
         style="fill:#ffffff" /><path
         d="m 53.108,33.902 c 0.07,-0.117 0.114,-0.255 0.114,-0.401 0,-0.324 -0.206,-0.599 -0.489,-0.707 l 0,-6.719 0.139,-0.054 c 0.58,-0.225 0.58,-0.59 0,-0.816 L 42.983,21.382 C 42.401,21.156 41.452,21.156 40.87,21.379 l -10,3.83 c -0.582,0.223 -0.582,0.588 0,0.811 l 9.962,3.831 c 0.581,0.223 1.532,0.223 2.113,-0.002 l 9.258,-3.57 0,6.517 c -0.287,0.108 -0.489,0.383 -0.489,0.707 0,0.146 0.04,0.285 0.114,0.401 -0.276,0.386 -0.455,1.017 -0.455,1.73 0,0.287 0.03,0.562 0.081,0.811 l 2.024,0 c 0.054,-0.25 0.084,-0.524 0.084,-0.811 0.001,-0.715 -0.181,-1.346 -0.454,-1.732 z"
         id="path17"
         inkscape:connector-curvature="0"
         style="fill:#ffffff" /></g><path
       d="m 47.529,34.947 -4.312,0.897 c -0.355,0.074 -0.816,0.115 -1.3,0.115 -0.476,0 -0.929,-0.041 -1.28,-0.111 l -4.385,-0.902 c -0.044,-0.01 -0.086,-0.022 -0.128,-0.034 -0.525,0.941 -0.823,2.025 -0.823,3.177 0,3.62 2.935,6.554 6.554,6.554 3.617,0 6.552,-2.935 6.552,-6.554 0,-1.145 -0.295,-2.223 -0.813,-3.159 -0.022,0.006 -0.041,0.012 -0.065,0.017 z"
       id="path19"
       inkscape:connector-curvature="0"
       style="fill:#ffffff" /><path
       d="M 58.822,70.226 46.892,49.533 c -0.646,-1.12 -2.985,-1.806 -4.933,-1.806 -1.948,0 -4.286,0.685 -4.934,1.806 L 25.098,70.226 c -0.842,1.464 -0.341,3.332 1.122,4.176 0.48,0.276 1.005,0.408 1.523,0.408 1.057,0 2.084,-0.55 2.651,-1.531 L 36.46,62.755 33.207,92.04 c -0.208,1.673 0.981,3.198 2.656,3.407 0.128,0.017 0.255,0.023 0.379,0.023 1.52,0 2.837,-1.467 3.029,-3.012 L 41.83,71.5 c 0.019,0 0.037,0 0.056,0 l 2.559,20.958 c 0.192,1.545 1.508,2.845 3.027,2.845 0.126,0 0.253,0.076 0.379,0.061 1.675,-0.209 2.866,-1.693 2.656,-3.366 L 47.46,62.733 53.526,73.268 c 0.566,0.979 1.592,1.534 2.651,1.534 0.516,0 1.042,-0.126 1.521,-0.403 1.465,-0.842 1.967,-2.71 1.124,-4.173 z"
       id="path21"
       inkscape:connector-curvature="0"
       style="fill:#ffffff" /></g></svg>