<?xml version="1.0" encoding="UTF-8" standalone="no"?>
<!-- Generator: Adobe Illustrator 16.0.0, SVG Export Plug-In . SVG Version: 6.00 Build 0)  -->

<svg
   xmlns:dc="http://purl.org/dc/elements/1.1/"
   xmlns:cc="http://creativecommons.org/ns#"
   xmlns:rdf="http://www.w3.org/1999/02/22-rdf-syntax-ns#"
   xmlns:svg="http://www.w3.org/2000/svg"
   xmlns="http://www.w3.org/2000/svg"
   xmlns:sodipodi="http://sodipodi.sourceforge.net/DTD/sodipodi-0.dtd"
   xmlns:inkscape="http://www.inkscape.org/namespaces/inkscape"
   version="1.1"
   id="Layer_1"
   x="0px"
   y="0px"
   width="1920"
   height="430"
   viewBox="0 0 1920 430"
   enable-background="new 0 0 1920 898.747"
   xml:space="preserve"
   inkscape:version="0.91 r13725"
   sodipodi:docname="top_reasons_bg.svg"><metadata
     id="metadata73"><rdf:RDF><cc:Work
         rdf:about=""><dc:format>image/svg+xml</dc:format><dc:type
           rdf:resource="http://purl.org/dc/dcmitype/StillImage" /><dc:title></dc:title></cc:Work></rdf:RDF></metadata><defs
     id="defs71" /><sodipodi:namedview
     pagecolor="#ffffff"
     bordercolor="#666666"
     borderopacity="1"
     objecttolerance="10"
     gridtolerance="10"
     guidetolerance="10"
     inkscape:pageopacity="0"
     inkscape:pageshadow="2"
     inkscape:window-width="1724"
     inkscape:window-height="795"
     id="namedview69"
     showgrid="false"
     inkscape:zoom="0.14583333"
     inkscape:cx="960"
     inkscape:cy="449.3735"
     inkscape:window-x="0"
     inkscape:window-y="0"
     inkscape:window-maximized="0"
     inkscape:current-layer="Layer_1" /><rect
     width="1920"
     height="898.74701"
     id="rect3"
     x="0"
     y="-468.74701"
     style="fill:#ffffff" /><linearGradient
     id="SVGID_1_"
     gradientUnits="userSpaceOnUse"
     x1="0"
     y1="249.5"
     x2="1920"
     y2="249.5"
     gradientTransform="translate(0,-468.74701)"><stop
       offset="0.3871"
       style="stop-color:#FFFF66"
       id="stop6" /><stop
       offset="1"
       style="stop-color:#FFCC00"
       id="stop8" /></linearGradient><rect
     width="1920"
     height="499"
     id="rect10"
     x="0"
     y="-468.74701"
     style="fill:url(#SVGID_1_)" /><linearGradient
     id="SVGID_2_"
     gradientUnits="userSpaceOnUse"
     x1="280.16849"
     y1="249.5"
     x2="1920"
     y2="249.5"
     gradientTransform="translate(0,-468.74701)"><stop
       offset="0"
       style="stop-color:#CC3333"
       id="stop13" /><stop
       offset="0.5215"
       style="stop-color:#663399"
       id="stop15" /></linearGradient><path
     d="m 280.168,30.252991 1639.832,0 0,-499.000001 -1241.902,0 c -157.827,143.443 -292.545,311.86 -397.93,499.000001 z"
     id="path17"
     inkscape:connector-curvature="0"
     style="fill:url(#SVGID_2_)" /><linearGradient
     id="SVGID_3_"
     gradientUnits="userSpaceOnUse"
     x1="246.2119"
     y1="249.5"
     x2="1920"
     y2="249.5"
     gradientTransform="translate(0,-468.74701)"><stop
       offset="0"
       style="stop-color:#FF6633"
       id="stop20" /><stop
       offset="0.8172"
       style="stop-color:#FFFF66"
       id="stop22" /></linearGradient><path
     d="m 246.212,30.252991 1673.788,0 0,-499.000001 -1133.95,0 c -209.354,131.688 -392.499,301.219 -539.838,499.000001 z"
     id="path24"
     inkscape:connector-curvature="0"
     style="fill:url(#SVGID_3_)" /><linearGradient
     id="SVGID_4_"
     gradientUnits="userSpaceOnUse"
     x1="386.97751"
     y1="201.84959"
     x2="1920"
     y2="201.84959"
     gradientTransform="translate(0,-468.74701)"><stop
       offset="0"
       style="stop-color:#FFFF66"
       id="stop27" /><stop
       offset="0.7903"
       style="stop-color:#FFCC00"
       id="stop29" /></linearGradient><path
     d="m 1141.31,-292.91701 c 276.888,0 540.262,57.861 778.69,162.151 l 0,-196.958 c -173.124,-49.051 -355.828,-75.305 -544.664,-75.305 -359.637,0 -697.03,95.22 -988.358,261.813 231.961,-97.694 486.838,-151.701 754.332,-151.701 z"
     id="path31"
     inkscape:connector-curvature="0"
     style="fill:url(#SVGID_4_)" /><linearGradient
     id="SVGID_5_"
     gradientUnits="userSpaceOnUse"
     x1="385.90921"
     y1="163.9424"
     x2="1920"
     y2="163.9424"
     gradientTransform="translate(0,-468.74701)"><stop
       offset="0.086"
       style="stop-color:#FFFFFF;stop-opacity:0"
       id="stop34" /><stop
       offset="0.4355"
       style="stop-color:#FFFFFF"
       id="stop36" /></linearGradient><path
     d="m 1920,-468.74701 -923.536,0 c -223.575,73.438 -429.703,185.34 -610.555,327.884 248.303,-113.684 524.45,-177.055 815.4,-177.055 253.7,0 496.146,48.18 718.69,135.887 l 0,-286.716 z"
     id="path38"
     inkscape:connector-curvature="0"
     style="fill:url(#SVGID_5_)" /><linearGradient
     id="SVGID_6_"
     gradientUnits="userSpaceOnUse"
     x1="0"
     y1="279.24271"
     x2="1920"
     y2="279.24271"
     gradientTransform="translate(0,-468.74701)"><stop
       offset="0.2312"
       style="stop-color:#FFCC00"
       id="stop41" /><stop
       offset="0.4516"
       style="stop-color:#FFFF66"
       id="stop43" /></linearGradient><path
     d="m 816.575,-95.22401 c -291.451,0 -568.027,-63.682 -816.575,-177.89 l 0,329.655001 1920,0 0,-492.091001 c -314.188,214.739 -694.14,340.326 -1103.425,340.326 z"
     id="path45"
     inkscape:connector-curvature="0"
     style="fill:url(#SVGID_6_)" /><circle
     cx="497.33301"
     cy="156.586"
     r="35.333"
     id="circle47"
     style="fill:#738cbf" /><linearGradient
     id="SVGID_7_"
     gradientUnits="userSpaceOnUse"
     x1="0"
     y1="525.28809"
     x2="1920"
     y2="525.28809"
     gradientTransform="translate(0,-468.74701)"><stop
       offset="0"
       style="stop-color:#6699CC"
       id="stop50" /><stop
       offset="1"
       style="stop-color:#996699"
       id="stop52" /></linearGradient><path
     d="M 943.011,-60.222009 C 601.699,-60.222009 280.513,-146.37501 0,-298.11201 l 0,499.203 c 170.879,-54.866 350.386,-90.474 535.968,-104.264 -1.26,2.772 -1.968,5.849 -1.968,9.091 0,12.15 9.85,22 22,22 12.15,0 22,-9.85 22,-22 0,-4.276 -1.225,-8.266 -3.336,-11.643 44.921,-2.591 90.184,-3.909 135.754,-3.909 443.163,0 857.318,124.182 1209.582,339.633 l 0,-746.916 c -288.432,163.407 -621.816,256.695001 -976.989,256.695001 z"
     id="path54"
     inkscape:connector-curvature="0"
     style="fill:url(#SVGID_7_)" /><circle
     cx="1423"
     cy="155.25299"
     r="35"
     id="circle56"
     style="opacity:0.2;fill:#ffffff" /><circle
     cx="1379"
     cy="110.25299"
     r="21.664"
     id="circle58"
     style="opacity:0.2;fill:#ffffff" /><circle
     cx="1430"
     cy="43.252991"
     r="13"
     id="circle60"
     style="opacity:0.2;fill:#ffffff" /><linearGradient
     id="SVGID_8_"
     gradientUnits="userSpaceOnUse"
     x1="242.4805"
     y1="304.5127"
     x2="1920"
     y2="304.5127"
     gradientTransform="translate(0,-468.74701)"><stop
       offset="0"
       style="stop-color:#663399"
       id="stop63" /><stop
       offset="1"
       style="stop-color:#CC3333"
       id="stop65" /></linearGradient><path
     d="m 943.011,-60.222009 c -246.599,0 -482.691,-44.978001 -700.53,-127.164001 267.976,113.22 562.55,175.834001 871.752,175.834001 284.023,0 555.705,-52.829 805.768,-149.183001 l 0,-156.182 c -288.433,163.407 -621.817,256.695001 -976.99,256.695001 z"
     id="path67"
     inkscape:connector-curvature="0"
     style="fill:url(#SVGID_8_)" /></svg>